<mxfile host="app.diagrams.net" modified="2024-03-28T08:04:46.914Z" agent="Mozilla/5.0 (Windows NT 10.0; Win64; x64; rv:124.0) Gecko/20100101 Firefox/124.0" etag="7ZGDtx9uHWdZ29ACQEcn" version="24.2.0" type="device">
  <diagram name="Page-1" id="bVja8GIp7dNuqtPGclJR">
    <mxGraphModel dx="2049" dy="1077" grid="1" gridSize="10" guides="1" tooltips="1" connect="1" arrows="1" fold="1" page="1" pageScale="1" pageWidth="850" pageHeight="1100" math="0" shadow="0">
      <root>
        <mxCell id="0" />
        <mxCell id="1" parent="0" />
        <mxCell id="kc2935-0-R1MWNThHEvL-1" value="&lt;div&gt;Assign jobs to miners&lt;/div&gt;" style="rounded=1;whiteSpace=wrap;html=1;fillColor=#fff2cc;strokeColor=#d6b656;" vertex="1" parent="1">
          <mxGeometry x="10" y="367.5" width="130" height="60" as="geometry" />
        </mxCell>
        <mxCell id="kc2935-0-R1MWNThHEvL-9" value="Miner 1" style="rounded=1;whiteSpace=wrap;html=1;fillColor=#f8cecc;strokeColor=#b85450;" vertex="1" parent="1">
          <mxGeometry x="605" y="290" width="45" height="60" as="geometry" />
        </mxCell>
        <mxCell id="kc2935-0-R1MWNThHEvL-11" value="Population" style="text;html=1;align=center;verticalAlign=middle;whiteSpace=wrap;rounded=0;" vertex="1" parent="1">
          <mxGeometry x="200" y="250" width="130" height="30" as="geometry" />
        </mxCell>
        <mxCell id="kc2935-0-R1MWNThHEvL-12" value="" style="endArrow=classic;html=1;rounded=0;entryX=0;entryY=0.5;entryDx=0;entryDy=0;exitX=1;exitY=0.5;exitDx=0;exitDy=0;" edge="1" parent="1" source="kc2935-0-R1MWNThHEvL-1" target="kc2935-0-R1MWNThHEvL-10">
          <mxGeometry width="50" height="50" relative="1" as="geometry">
            <mxPoint x="400" y="460" as="sourcePoint" />
            <mxPoint x="450" y="410" as="targetPoint" />
          </mxGeometry>
        </mxCell>
        <mxCell id="kc2935-0-R1MWNThHEvL-10" value="" style="rounded=1;whiteSpace=wrap;html=1;fillColor=#fff2cc;strokeColor=#d6b656;" vertex="1" parent="1">
          <mxGeometry x="180" y="275" width="170" height="245" as="geometry" />
        </mxCell>
        <mxCell id="kc2935-0-R1MWNThHEvL-72" value="" style="group" vertex="1" connectable="0" parent="1">
          <mxGeometry x="215" y="280" width="100" height="70" as="geometry" />
        </mxCell>
        <mxCell id="kc2935-0-R1MWNThHEvL-19" value="" style="ellipse;whiteSpace=wrap;html=1;aspect=fixed;fillColor=#ffe6cc;strokeColor=#d79b00;" vertex="1" parent="kc2935-0-R1MWNThHEvL-72">
          <mxGeometry width="17.5" height="17.5" as="geometry" />
        </mxCell>
        <mxCell id="kc2935-0-R1MWNThHEvL-20" value="" style="ellipse;whiteSpace=wrap;html=1;aspect=fixed;fillColor=#ffe6cc;strokeColor=#d79b00;" vertex="1" parent="kc2935-0-R1MWNThHEvL-72">
          <mxGeometry y="26.25" width="17.5" height="17.5" as="geometry" />
        </mxCell>
        <mxCell id="kc2935-0-R1MWNThHEvL-22" value="" style="ellipse;whiteSpace=wrap;html=1;aspect=fixed;fillColor=#ffe6cc;strokeColor=#d79b00;" vertex="1" parent="kc2935-0-R1MWNThHEvL-72">
          <mxGeometry y="52.5" width="17.5" height="17.5" as="geometry" />
        </mxCell>
        <mxCell id="kc2935-0-R1MWNThHEvL-23" value="" style="ellipse;whiteSpace=wrap;html=1;aspect=fixed;fillColor=#fff2cc;strokeColor=#d6b656;" vertex="1" parent="kc2935-0-R1MWNThHEvL-72">
          <mxGeometry x="27.272727272727273" y="26.25" width="17.5" height="17.5" as="geometry" />
        </mxCell>
        <mxCell id="kc2935-0-R1MWNThHEvL-24" value="" style="ellipse;whiteSpace=wrap;html=1;aspect=fixed;fillColor=#dae8fc;strokeColor=#6c8ebf;" vertex="1" parent="kc2935-0-R1MWNThHEvL-72">
          <mxGeometry x="54.54545454545455" y="26.25" width="17.5" height="17.5" as="geometry" />
        </mxCell>
        <mxCell id="kc2935-0-R1MWNThHEvL-25" value="" style="ellipse;whiteSpace=wrap;html=1;aspect=fixed;fillColor=#d5e8d4;strokeColor=#82b366;" vertex="1" parent="kc2935-0-R1MWNThHEvL-72">
          <mxGeometry x="81.81818181818181" y="26.25" width="17.5" height="17.5" as="geometry" />
        </mxCell>
        <mxCell id="kc2935-0-R1MWNThHEvL-26" value="" style="endArrow=none;html=1;rounded=0;entryX=0;entryY=0.5;entryDx=0;entryDy=0;exitX=1;exitY=0.5;exitDx=0;exitDy=0;" edge="1" parent="kc2935-0-R1MWNThHEvL-72" source="kc2935-0-R1MWNThHEvL-19" target="kc2935-0-R1MWNThHEvL-23">
          <mxGeometry width="50" height="50" relative="1" as="geometry">
            <mxPoint x="9.09090909090909" y="8.75" as="sourcePoint" />
            <mxPoint x="127.27272727272727" y="-148.75" as="targetPoint" />
          </mxGeometry>
        </mxCell>
        <mxCell id="kc2935-0-R1MWNThHEvL-27" value="" style="endArrow=none;html=1;rounded=0;entryX=0;entryY=0.5;entryDx=0;entryDy=0;exitX=1;exitY=0.5;exitDx=0;exitDy=0;" edge="1" parent="kc2935-0-R1MWNThHEvL-72" source="kc2935-0-R1MWNThHEvL-20" target="kc2935-0-R1MWNThHEvL-23">
          <mxGeometry width="50" height="50" relative="1" as="geometry">
            <mxPoint x="27.272727272727273" y="17.5" as="sourcePoint" />
            <mxPoint x="36.36363636363636" y="43.75" as="targetPoint" />
          </mxGeometry>
        </mxCell>
        <mxCell id="kc2935-0-R1MWNThHEvL-28" value="" style="endArrow=none;html=1;rounded=0;exitX=1;exitY=0.5;exitDx=0;exitDy=0;entryX=0;entryY=0.5;entryDx=0;entryDy=0;" edge="1" parent="kc2935-0-R1MWNThHEvL-72" source="kc2935-0-R1MWNThHEvL-22" target="kc2935-0-R1MWNThHEvL-23">
          <mxGeometry width="50" height="50" relative="1" as="geometry">
            <mxPoint x="36.36363636363636" y="26.25" as="sourcePoint" />
            <mxPoint x="63.63636363636363" y="52.5" as="targetPoint" />
          </mxGeometry>
        </mxCell>
        <mxCell id="kc2935-0-R1MWNThHEvL-29" value="" style="endArrow=none;html=1;rounded=0;entryX=0;entryY=0.5;entryDx=0;entryDy=0;exitX=1;exitY=0.5;exitDx=0;exitDy=0;" edge="1" parent="kc2935-0-R1MWNThHEvL-72" source="kc2935-0-R1MWNThHEvL-23" target="kc2935-0-R1MWNThHEvL-24">
          <mxGeometry width="50" height="50" relative="1" as="geometry">
            <mxPoint x="27.272727272727273" y="17.5" as="sourcePoint" />
            <mxPoint x="36.36363636363636" y="43.75" as="targetPoint" />
          </mxGeometry>
        </mxCell>
        <mxCell id="kc2935-0-R1MWNThHEvL-30" value="" style="endArrow=none;html=1;rounded=0;entryX=1;entryY=0.5;entryDx=0;entryDy=0;exitX=0;exitY=0.5;exitDx=0;exitDy=0;" edge="1" parent="kc2935-0-R1MWNThHEvL-72" source="kc2935-0-R1MWNThHEvL-25" target="kc2935-0-R1MWNThHEvL-24">
          <mxGeometry width="50" height="50" relative="1" as="geometry">
            <mxPoint x="54.54545454545455" y="43.75" as="sourcePoint" />
            <mxPoint x="63.63636363636363" y="43.75" as="targetPoint" />
          </mxGeometry>
        </mxCell>
        <mxCell id="kc2935-0-R1MWNThHEvL-73" value="" style="group" vertex="1" connectable="0" parent="1">
          <mxGeometry x="215" y="360" width="100" height="70" as="geometry" />
        </mxCell>
        <mxCell id="kc2935-0-R1MWNThHEvL-31" value="" style="ellipse;whiteSpace=wrap;html=1;aspect=fixed;fillColor=#ffe6cc;strokeColor=#d79b00;" vertex="1" parent="kc2935-0-R1MWNThHEvL-73">
          <mxGeometry width="17.5" height="17.5" as="geometry" />
        </mxCell>
        <mxCell id="kc2935-0-R1MWNThHEvL-32" value="" style="ellipse;whiteSpace=wrap;html=1;aspect=fixed;fillColor=#ffe6cc;strokeColor=#d79b00;" vertex="1" parent="kc2935-0-R1MWNThHEvL-73">
          <mxGeometry y="26.25" width="17.5" height="17.5" as="geometry" />
        </mxCell>
        <mxCell id="kc2935-0-R1MWNThHEvL-33" value="" style="ellipse;whiteSpace=wrap;html=1;aspect=fixed;fillColor=#ffe6cc;strokeColor=#d79b00;" vertex="1" parent="kc2935-0-R1MWNThHEvL-73">
          <mxGeometry y="52.5" width="17.5" height="17.5" as="geometry" />
        </mxCell>
        <mxCell id="kc2935-0-R1MWNThHEvL-34" value="" style="ellipse;whiteSpace=wrap;html=1;aspect=fixed;fillColor=#fff2cc;strokeColor=#d6b656;" vertex="1" parent="kc2935-0-R1MWNThHEvL-73">
          <mxGeometry x="27.272727272727273" y="8.75" width="17.5" height="17.5" as="geometry" />
        </mxCell>
        <mxCell id="kc2935-0-R1MWNThHEvL-35" value="" style="ellipse;whiteSpace=wrap;html=1;aspect=fixed;fillColor=#fff2cc;strokeColor=#d6b656;" vertex="1" parent="kc2935-0-R1MWNThHEvL-73">
          <mxGeometry x="27.272727272727273" y="43.75" width="17.5" height="17.5" as="geometry" />
        </mxCell>
        <mxCell id="kc2935-0-R1MWNThHEvL-36" value="" style="ellipse;whiteSpace=wrap;html=1;aspect=fixed;fillColor=#dae8fc;strokeColor=#6c8ebf;" vertex="1" parent="kc2935-0-R1MWNThHEvL-73">
          <mxGeometry x="54.54545454545455" y="26.25" width="17.5" height="17.5" as="geometry" />
        </mxCell>
        <mxCell id="kc2935-0-R1MWNThHEvL-37" value="" style="endArrow=none;html=1;rounded=0;entryX=0;entryY=0.5;entryDx=0;entryDy=0;exitX=1;exitY=0.5;exitDx=0;exitDy=0;" edge="1" parent="kc2935-0-R1MWNThHEvL-73" source="kc2935-0-R1MWNThHEvL-31" target="kc2935-0-R1MWNThHEvL-34">
          <mxGeometry width="50" height="50" relative="1" as="geometry">
            <mxPoint x="9.09090909090909" y="8.75" as="sourcePoint" />
            <mxPoint x="127.27272727272727" y="-148.75" as="targetPoint" />
          </mxGeometry>
        </mxCell>
        <mxCell id="kc2935-0-R1MWNThHEvL-38" value="" style="endArrow=none;html=1;rounded=0;entryX=0;entryY=0.5;entryDx=0;entryDy=0;exitX=1;exitY=0.5;exitDx=0;exitDy=0;" edge="1" parent="kc2935-0-R1MWNThHEvL-73" source="kc2935-0-R1MWNThHEvL-32" target="kc2935-0-R1MWNThHEvL-34">
          <mxGeometry width="50" height="50" relative="1" as="geometry">
            <mxPoint x="27.272727272727273" y="17.5" as="sourcePoint" />
            <mxPoint x="36.36363636363636" y="43.75" as="targetPoint" />
          </mxGeometry>
        </mxCell>
        <mxCell id="kc2935-0-R1MWNThHEvL-39" value="" style="endArrow=none;html=1;rounded=0;exitX=1;exitY=0.5;exitDx=0;exitDy=0;entryX=0;entryY=0.5;entryDx=0;entryDy=0;" edge="1" parent="kc2935-0-R1MWNThHEvL-73" source="kc2935-0-R1MWNThHEvL-33" target="kc2935-0-R1MWNThHEvL-34">
          <mxGeometry width="50" height="50" relative="1" as="geometry">
            <mxPoint x="36.36363636363636" y="26.25" as="sourcePoint" />
            <mxPoint x="63.63636363636363" y="52.5" as="targetPoint" />
          </mxGeometry>
        </mxCell>
        <mxCell id="kc2935-0-R1MWNThHEvL-41" value="" style="endArrow=none;html=1;rounded=0;entryX=1;entryY=0.5;entryDx=0;entryDy=0;exitX=0;exitY=0.5;exitDx=0;exitDy=0;" edge="1" parent="kc2935-0-R1MWNThHEvL-73" source="kc2935-0-R1MWNThHEvL-36" target="kc2935-0-R1MWNThHEvL-35">
          <mxGeometry width="50" height="50" relative="1" as="geometry">
            <mxPoint x="54.54545454545455" y="43.75" as="sourcePoint" />
            <mxPoint x="63.63636363636363" y="43.75" as="targetPoint" />
          </mxGeometry>
        </mxCell>
        <mxCell id="kc2935-0-R1MWNThHEvL-42" value="" style="endArrow=none;html=1;rounded=0;entryX=0.99;entryY=0.424;entryDx=0;entryDy=0;exitX=0;exitY=0.5;exitDx=0;exitDy=0;entryPerimeter=0;" edge="1" parent="kc2935-0-R1MWNThHEvL-73" source="kc2935-0-R1MWNThHEvL-36" target="kc2935-0-R1MWNThHEvL-34">
          <mxGeometry width="50" height="50" relative="1" as="geometry">
            <mxPoint x="63.63636363636363" y="35" as="sourcePoint" />
            <mxPoint x="54.54545454545455" y="52.5" as="targetPoint" />
          </mxGeometry>
        </mxCell>
        <mxCell id="kc2935-0-R1MWNThHEvL-43" value="" style="endArrow=none;html=1;rounded=0;entryX=0;entryY=0.5;entryDx=0;entryDy=0;" edge="1" parent="kc2935-0-R1MWNThHEvL-73" target="kc2935-0-R1MWNThHEvL-35">
          <mxGeometry width="50" height="50" relative="1" as="geometry">
            <mxPoint x="18.18181818181818" y="8.75" as="sourcePoint" />
            <mxPoint x="36.36363636363636" y="26.25" as="targetPoint" />
          </mxGeometry>
        </mxCell>
        <mxCell id="kc2935-0-R1MWNThHEvL-44" value="" style="endArrow=none;html=1;rounded=0;entryX=0;entryY=0.5;entryDx=0;entryDy=0;" edge="1" parent="kc2935-0-R1MWNThHEvL-73" target="kc2935-0-R1MWNThHEvL-35">
          <mxGeometry width="50" height="50" relative="1" as="geometry">
            <mxPoint x="18.18181818181818" y="35" as="sourcePoint" />
            <mxPoint x="45.45454545454545" y="35" as="targetPoint" />
          </mxGeometry>
        </mxCell>
        <mxCell id="kc2935-0-R1MWNThHEvL-45" value="" style="endArrow=none;html=1;rounded=0;entryX=0.001;entryY=0.61;entryDx=0;entryDy=0;exitX=1;exitY=0.5;exitDx=0;exitDy=0;entryPerimeter=0;" edge="1" parent="kc2935-0-R1MWNThHEvL-73" source="kc2935-0-R1MWNThHEvL-33" target="kc2935-0-R1MWNThHEvL-35">
          <mxGeometry width="50" height="50" relative="1" as="geometry">
            <mxPoint x="45.45454545454545" y="35" as="sourcePoint" />
            <mxPoint x="54.54545454545455" y="43.75" as="targetPoint" />
          </mxGeometry>
        </mxCell>
        <mxCell id="kc2935-0-R1MWNThHEvL-46" value="" style="ellipse;whiteSpace=wrap;html=1;aspect=fixed;fillColor=#d5e8d4;strokeColor=#82b366;" vertex="1" parent="kc2935-0-R1MWNThHEvL-73">
          <mxGeometry x="81.81818181818181" y="26.25" width="17.5" height="17.5" as="geometry" />
        </mxCell>
        <mxCell id="kc2935-0-R1MWNThHEvL-48" value="" style="endArrow=none;html=1;rounded=0;entryX=0.5;entryY=0;entryDx=0;entryDy=0;exitX=1.001;exitY=0.39;exitDx=0;exitDy=0;exitPerimeter=0;" edge="1" parent="kc2935-0-R1MWNThHEvL-73" source="kc2935-0-R1MWNThHEvL-34" target="kc2935-0-R1MWNThHEvL-46">
          <mxGeometry width="50" height="50" relative="1" as="geometry">
            <mxPoint x="40.90909090909091" y="8.75" as="sourcePoint" />
            <mxPoint x="121.27272727272725" y="15.364999999999952" as="targetPoint" />
            <Array as="points">
              <mxPoint x="72.72727272727272" y="17.5" />
            </Array>
          </mxGeometry>
        </mxCell>
        <mxCell id="kc2935-0-R1MWNThHEvL-49" value="" style="endArrow=none;html=1;rounded=0;entryX=1;entryY=0.5;entryDx=0;entryDy=0;exitX=0;exitY=0.5;exitDx=0;exitDy=0;" edge="1" parent="kc2935-0-R1MWNThHEvL-73">
          <mxGeometry width="50" height="50" relative="1" as="geometry">
            <mxPoint x="81.81818181818181" y="34.894999999999996" as="sourcePoint" />
            <mxPoint x="72.72727272727272" y="34.894999999999996" as="targetPoint" />
          </mxGeometry>
        </mxCell>
        <mxCell id="kc2935-0-R1MWNThHEvL-74" value="" style="group" vertex="1" connectable="0" parent="1">
          <mxGeometry x="215" y="440" width="100" height="70" as="geometry" />
        </mxCell>
        <mxCell id="kc2935-0-R1MWNThHEvL-50" value="" style="ellipse;whiteSpace=wrap;html=1;aspect=fixed;fillColor=#ffe6cc;strokeColor=#d79b00;" vertex="1" parent="kc2935-0-R1MWNThHEvL-74">
          <mxGeometry width="17.5" height="17.5" as="geometry" />
        </mxCell>
        <mxCell id="kc2935-0-R1MWNThHEvL-51" value="" style="ellipse;whiteSpace=wrap;html=1;aspect=fixed;fillColor=#ffe6cc;strokeColor=#d79b00;" vertex="1" parent="kc2935-0-R1MWNThHEvL-74">
          <mxGeometry y="26.25" width="17.5" height="17.5" as="geometry" />
        </mxCell>
        <mxCell id="kc2935-0-R1MWNThHEvL-52" value="" style="ellipse;whiteSpace=wrap;html=1;aspect=fixed;fillColor=#ffe6cc;strokeColor=#d79b00;" vertex="1" parent="kc2935-0-R1MWNThHEvL-74">
          <mxGeometry y="52.5" width="17.5" height="17.5" as="geometry" />
        </mxCell>
        <mxCell id="kc2935-0-R1MWNThHEvL-53" value="" style="ellipse;whiteSpace=wrap;html=1;aspect=fixed;fillColor=#fff2cc;strokeColor=#d6b656;" vertex="1" parent="kc2935-0-R1MWNThHEvL-74">
          <mxGeometry x="27.272727272727273" y="8.75" width="17.5" height="17.5" as="geometry" />
        </mxCell>
        <mxCell id="kc2935-0-R1MWNThHEvL-54" value="" style="ellipse;whiteSpace=wrap;html=1;aspect=fixed;fillColor=#fff2cc;strokeColor=#d6b656;" vertex="1" parent="kc2935-0-R1MWNThHEvL-74">
          <mxGeometry x="27.272727272727273" y="43.75" width="17.5" height="17.5" as="geometry" />
        </mxCell>
        <mxCell id="kc2935-0-R1MWNThHEvL-55" value="" style="ellipse;whiteSpace=wrap;html=1;aspect=fixed;fillColor=#dae8fc;strokeColor=#6c8ebf;" vertex="1" parent="kc2935-0-R1MWNThHEvL-74">
          <mxGeometry x="54.54545454545455" y="8.75" width="17.5" height="17.5" as="geometry" />
        </mxCell>
        <mxCell id="kc2935-0-R1MWNThHEvL-56" value="" style="endArrow=none;html=1;rounded=0;entryX=0;entryY=0.5;entryDx=0;entryDy=0;exitX=1;exitY=0.5;exitDx=0;exitDy=0;" edge="1" parent="kc2935-0-R1MWNThHEvL-74" source="kc2935-0-R1MWNThHEvL-50" target="kc2935-0-R1MWNThHEvL-53">
          <mxGeometry width="50" height="50" relative="1" as="geometry">
            <mxPoint x="9.09090909090909" y="8.75" as="sourcePoint" />
            <mxPoint x="127.27272727272727" y="-148.75" as="targetPoint" />
          </mxGeometry>
        </mxCell>
        <mxCell id="kc2935-0-R1MWNThHEvL-57" value="" style="endArrow=none;html=1;rounded=0;entryX=0;entryY=0.5;entryDx=0;entryDy=0;exitX=1;exitY=0.5;exitDx=0;exitDy=0;" edge="1" parent="kc2935-0-R1MWNThHEvL-74" source="kc2935-0-R1MWNThHEvL-51" target="kc2935-0-R1MWNThHEvL-53">
          <mxGeometry width="50" height="50" relative="1" as="geometry">
            <mxPoint x="27.272727272727273" y="17.5" as="sourcePoint" />
            <mxPoint x="36.36363636363636" y="43.75" as="targetPoint" />
          </mxGeometry>
        </mxCell>
        <mxCell id="kc2935-0-R1MWNThHEvL-58" value="" style="endArrow=none;html=1;rounded=0;exitX=1;exitY=0.5;exitDx=0;exitDy=0;entryX=0;entryY=0.5;entryDx=0;entryDy=0;" edge="1" parent="kc2935-0-R1MWNThHEvL-74" source="kc2935-0-R1MWNThHEvL-52" target="kc2935-0-R1MWNThHEvL-53">
          <mxGeometry width="50" height="50" relative="1" as="geometry">
            <mxPoint x="36.36363636363636" y="26.25" as="sourcePoint" />
            <mxPoint x="63.63636363636363" y="52.5" as="targetPoint" />
          </mxGeometry>
        </mxCell>
        <mxCell id="kc2935-0-R1MWNThHEvL-59" value="" style="endArrow=none;html=1;rounded=0;entryX=1;entryY=0.5;entryDx=0;entryDy=0;exitX=0;exitY=0.5;exitDx=0;exitDy=0;" edge="1" parent="kc2935-0-R1MWNThHEvL-74" source="kc2935-0-R1MWNThHEvL-55" target="kc2935-0-R1MWNThHEvL-54">
          <mxGeometry width="50" height="50" relative="1" as="geometry">
            <mxPoint x="54.54545454545455" y="43.75" as="sourcePoint" />
            <mxPoint x="63.63636363636363" y="43.75" as="targetPoint" />
          </mxGeometry>
        </mxCell>
        <mxCell id="kc2935-0-R1MWNThHEvL-60" value="" style="endArrow=none;html=1;rounded=0;entryX=0.99;entryY=0.424;entryDx=0;entryDy=0;exitX=0;exitY=0.5;exitDx=0;exitDy=0;entryPerimeter=0;" edge="1" parent="kc2935-0-R1MWNThHEvL-74" source="kc2935-0-R1MWNThHEvL-55" target="kc2935-0-R1MWNThHEvL-53">
          <mxGeometry width="50" height="50" relative="1" as="geometry">
            <mxPoint x="63.63636363636363" y="35" as="sourcePoint" />
            <mxPoint x="54.54545454545455" y="52.5" as="targetPoint" />
          </mxGeometry>
        </mxCell>
        <mxCell id="kc2935-0-R1MWNThHEvL-61" value="" style="endArrow=none;html=1;rounded=0;entryX=0;entryY=0.5;entryDx=0;entryDy=0;" edge="1" parent="kc2935-0-R1MWNThHEvL-74" target="kc2935-0-R1MWNThHEvL-54">
          <mxGeometry width="50" height="50" relative="1" as="geometry">
            <mxPoint x="18.18181818181818" y="8.75" as="sourcePoint" />
            <mxPoint x="36.36363636363636" y="26.25" as="targetPoint" />
          </mxGeometry>
        </mxCell>
        <mxCell id="kc2935-0-R1MWNThHEvL-62" value="" style="endArrow=none;html=1;rounded=0;entryX=0;entryY=0.5;entryDx=0;entryDy=0;" edge="1" parent="kc2935-0-R1MWNThHEvL-74" target="kc2935-0-R1MWNThHEvL-54">
          <mxGeometry width="50" height="50" relative="1" as="geometry">
            <mxPoint x="18.18181818181818" y="35" as="sourcePoint" />
            <mxPoint x="45.45454545454545" y="35" as="targetPoint" />
          </mxGeometry>
        </mxCell>
        <mxCell id="kc2935-0-R1MWNThHEvL-63" value="" style="endArrow=none;html=1;rounded=0;entryX=0.001;entryY=0.61;entryDx=0;entryDy=0;exitX=1;exitY=0.5;exitDx=0;exitDy=0;entryPerimeter=0;" edge="1" parent="kc2935-0-R1MWNThHEvL-74" source="kc2935-0-R1MWNThHEvL-52" target="kc2935-0-R1MWNThHEvL-54">
          <mxGeometry width="50" height="50" relative="1" as="geometry">
            <mxPoint x="45.45454545454545" y="35" as="sourcePoint" />
            <mxPoint x="54.54545454545455" y="43.75" as="targetPoint" />
          </mxGeometry>
        </mxCell>
        <mxCell id="kc2935-0-R1MWNThHEvL-64" value="" style="ellipse;whiteSpace=wrap;html=1;aspect=fixed;fillColor=#dae8fc;strokeColor=#6c8ebf;" vertex="1" parent="kc2935-0-R1MWNThHEvL-74">
          <mxGeometry x="54.54545454545455" y="43.75" width="17.5" height="17.5" as="geometry" />
        </mxCell>
        <mxCell id="kc2935-0-R1MWNThHEvL-66" value="" style="endArrow=none;html=1;rounded=0;exitX=0;exitY=0.5;exitDx=0;exitDy=0;" edge="1" parent="kc2935-0-R1MWNThHEvL-74" source="kc2935-0-R1MWNThHEvL-64">
          <mxGeometry width="50" height="50" relative="1" as="geometry">
            <mxPoint x="81.81818181818181" y="34.894999999999996" as="sourcePoint" />
            <mxPoint x="45.45454545454545" y="17.5" as="targetPoint" />
          </mxGeometry>
        </mxCell>
        <mxCell id="kc2935-0-R1MWNThHEvL-67" value="" style="endArrow=none;html=1;rounded=0;entryX=1;entryY=0.5;entryDx=0;entryDy=0;exitX=-0.022;exitY=0.39;exitDx=0;exitDy=0;exitPerimeter=0;" edge="1" parent="kc2935-0-R1MWNThHEvL-74" source="kc2935-0-R1MWNThHEvL-64" target="kc2935-0-R1MWNThHEvL-53">
          <mxGeometry width="50" height="50" relative="1" as="geometry">
            <mxPoint x="63.63636363636363" y="26.25" as="sourcePoint" />
            <mxPoint x="54.54545454545455" y="24.5" as="targetPoint" />
          </mxGeometry>
        </mxCell>
        <mxCell id="kc2935-0-R1MWNThHEvL-68" value="" style="ellipse;whiteSpace=wrap;html=1;aspect=fixed;fillColor=#d5e8d4;strokeColor=#82b366;" vertex="1" parent="kc2935-0-R1MWNThHEvL-74">
          <mxGeometry x="81.81818181818181" y="26.25" width="17.5" height="17.5" as="geometry" />
        </mxCell>
        <mxCell id="kc2935-0-R1MWNThHEvL-69" value="" style="endArrow=none;html=1;rounded=0;entryX=1;entryY=0.5;entryDx=0;entryDy=0;exitX=0;exitY=0.5;exitDx=0;exitDy=0;" edge="1" parent="kc2935-0-R1MWNThHEvL-74" source="kc2935-0-R1MWNThHEvL-64" target="kc2935-0-R1MWNThHEvL-54">
          <mxGeometry width="50" height="50" relative="1" as="geometry">
            <mxPoint x="63.63636363636363" y="26.25" as="sourcePoint" />
            <mxPoint x="54.54545454545455" y="24.5" as="targetPoint" />
          </mxGeometry>
        </mxCell>
        <mxCell id="kc2935-0-R1MWNThHEvL-70" value="" style="endArrow=none;html=1;rounded=0;entryX=1;entryY=0.5;entryDx=0;entryDy=0;exitX=0;exitY=0.5;exitDx=0;exitDy=0;" edge="1" parent="kc2935-0-R1MWNThHEvL-74" source="kc2935-0-R1MWNThHEvL-68" target="kc2935-0-R1MWNThHEvL-64">
          <mxGeometry width="50" height="50" relative="1" as="geometry">
            <mxPoint x="63.63636363636363" y="61.25" as="sourcePoint" />
            <mxPoint x="54.54545454545455" y="61.25" as="targetPoint" />
          </mxGeometry>
        </mxCell>
        <mxCell id="kc2935-0-R1MWNThHEvL-71" value="" style="endArrow=none;html=1;rounded=0;exitX=1;exitY=0.5;exitDx=0;exitDy=0;entryX=-0.022;entryY=0.39;entryDx=0;entryDy=0;entryPerimeter=0;" edge="1" parent="kc2935-0-R1MWNThHEvL-74" source="kc2935-0-R1MWNThHEvL-55" target="kc2935-0-R1MWNThHEvL-68">
          <mxGeometry width="50" height="50" relative="1" as="geometry">
            <mxPoint x="81.81818181818181" y="43.75" as="sourcePoint" />
            <mxPoint x="72.72727272727272" y="35" as="targetPoint" />
          </mxGeometry>
        </mxCell>
        <mxCell id="kc2935-0-R1MWNThHEvL-75" value="" style="rounded=1;whiteSpace=wrap;html=1;fillColor=#fff2cc;strokeColor=#d6b656;" vertex="1" parent="1">
          <mxGeometry x="410" y="275" width="170" height="245" as="geometry" />
        </mxCell>
        <mxCell id="kc2935-0-R1MWNThHEvL-76" value="&lt;font face=&quot;Helvetica&quot; style=&quot;font-size: 9px;&quot;&gt;Network 1&lt;/font&gt;" style="text;html=1;align=center;verticalAlign=middle;whiteSpace=wrap;rounded=0;rotation=-90;" vertex="1" parent="1">
          <mxGeometry x="130" y="300" width="130" height="30" as="geometry" />
        </mxCell>
        <mxCell id="kc2935-0-R1MWNThHEvL-77" value="&lt;font face=&quot;Helvetica&quot; style=&quot;font-size: 9px;&quot;&gt;Network 3&lt;/font&gt;" style="text;html=1;align=center;verticalAlign=middle;whiteSpace=wrap;rounded=0;rotation=-90;" vertex="1" parent="1">
          <mxGeometry x="130" y="460" width="130" height="30" as="geometry" />
        </mxCell>
        <mxCell id="kc2935-0-R1MWNThHEvL-78" value="&lt;font face=&quot;Helvetica&quot; style=&quot;font-size: 9px;&quot;&gt;Network 2&lt;br&gt;&lt;/font&gt;" style="text;html=1;align=center;verticalAlign=middle;whiteSpace=wrap;rounded=0;rotation=-90;" vertex="1" parent="1">
          <mxGeometry x="130" y="382.5" width="130" height="30" as="geometry" />
        </mxCell>
        <mxCell id="kc2935-0-R1MWNThHEvL-79" value="" style="endArrow=classic;html=1;rounded=0;entryX=0;entryY=0.5;entryDx=0;entryDy=0;exitX=1;exitY=0.5;exitDx=0;exitDy=0;" edge="1" parent="1" target="kc2935-0-R1MWNThHEvL-75">
          <mxGeometry width="50" height="50" relative="1" as="geometry">
            <mxPoint x="350" y="397.16" as="sourcePoint" />
            <mxPoint x="390" y="397.16" as="targetPoint" />
          </mxGeometry>
        </mxCell>
        <mxCell id="kc2935-0-R1MWNThHEvL-80" value="Netowrk&lt;br&gt;Encoder" style="text;html=1;align=center;verticalAlign=middle;whiteSpace=wrap;rounded=0;" vertex="1" parent="1">
          <mxGeometry x="311" y="381" width="130" height="30" as="geometry" />
        </mxCell>
        <mxCell id="kc2935-0-R1MWNThHEvL-81" value="" style="group" vertex="1" connectable="0" parent="1">
          <mxGeometry x="420" y="310" width="150" height="20" as="geometry" />
        </mxCell>
        <mxCell id="kc2935-0-R1MWNThHEvL-2" value="1" style="rounded=0;whiteSpace=wrap;html=1;" vertex="1" parent="kc2935-0-R1MWNThHEvL-81">
          <mxGeometry width="25" height="20" as="geometry" />
        </mxCell>
        <mxCell id="kc2935-0-R1MWNThHEvL-3" value="0" style="rounded=0;whiteSpace=wrap;html=1;" vertex="1" parent="kc2935-0-R1MWNThHEvL-81">
          <mxGeometry x="25" width="25" height="20" as="geometry" />
        </mxCell>
        <mxCell id="kc2935-0-R1MWNThHEvL-4" value="0" style="rounded=0;whiteSpace=wrap;html=1;" vertex="1" parent="kc2935-0-R1MWNThHEvL-81">
          <mxGeometry x="50" width="25" height="20" as="geometry" />
        </mxCell>
        <mxCell id="kc2935-0-R1MWNThHEvL-5" value="1" style="rounded=0;whiteSpace=wrap;html=1;" vertex="1" parent="kc2935-0-R1MWNThHEvL-81">
          <mxGeometry x="75" width="25" height="20" as="geometry" />
        </mxCell>
        <mxCell id="kc2935-0-R1MWNThHEvL-6" value="0" style="rounded=0;whiteSpace=wrap;html=1;" vertex="1" parent="kc2935-0-R1MWNThHEvL-81">
          <mxGeometry x="100" width="25" height="20" as="geometry" />
        </mxCell>
        <mxCell id="kc2935-0-R1MWNThHEvL-7" value="1" style="rounded=0;whiteSpace=wrap;html=1;" vertex="1" parent="kc2935-0-R1MWNThHEvL-81">
          <mxGeometry x="125" width="25" height="20" as="geometry" />
        </mxCell>
        <mxCell id="kc2935-0-R1MWNThHEvL-84" value="" style="group" vertex="1" connectable="0" parent="1">
          <mxGeometry x="420" y="380" width="150" height="20" as="geometry" />
        </mxCell>
        <mxCell id="kc2935-0-R1MWNThHEvL-85" value="1" style="rounded=0;whiteSpace=wrap;html=1;" vertex="1" parent="kc2935-0-R1MWNThHEvL-84">
          <mxGeometry width="25" height="20" as="geometry" />
        </mxCell>
        <mxCell id="kc2935-0-R1MWNThHEvL-86" value="0" style="rounded=0;whiteSpace=wrap;html=1;" vertex="1" parent="kc2935-0-R1MWNThHEvL-84">
          <mxGeometry x="25" width="25" height="20" as="geometry" />
        </mxCell>
        <mxCell id="kc2935-0-R1MWNThHEvL-87" value="1" style="rounded=0;whiteSpace=wrap;html=1;" vertex="1" parent="kc2935-0-R1MWNThHEvL-84">
          <mxGeometry x="50" width="25" height="20" as="geometry" />
        </mxCell>
        <mxCell id="kc2935-0-R1MWNThHEvL-88" value="1" style="rounded=0;whiteSpace=wrap;html=1;" vertex="1" parent="kc2935-0-R1MWNThHEvL-84">
          <mxGeometry x="75" width="25" height="20" as="geometry" />
        </mxCell>
        <mxCell id="kc2935-0-R1MWNThHEvL-89" value="1" style="rounded=0;whiteSpace=wrap;html=1;" vertex="1" parent="kc2935-0-R1MWNThHEvL-84">
          <mxGeometry x="100" width="25" height="20" as="geometry" />
        </mxCell>
        <mxCell id="kc2935-0-R1MWNThHEvL-90" value="1" style="rounded=0;whiteSpace=wrap;html=1;" vertex="1" parent="kc2935-0-R1MWNThHEvL-84">
          <mxGeometry x="125" width="25" height="20" as="geometry" />
        </mxCell>
        <mxCell id="kc2935-0-R1MWNThHEvL-91" value="" style="group" vertex="1" connectable="0" parent="1">
          <mxGeometry x="420" y="460" width="150" height="20" as="geometry" />
        </mxCell>
        <mxCell id="kc2935-0-R1MWNThHEvL-92" value="1" style="rounded=0;whiteSpace=wrap;html=1;" vertex="1" parent="kc2935-0-R1MWNThHEvL-91">
          <mxGeometry width="25" height="20" as="geometry" />
        </mxCell>
        <mxCell id="kc2935-0-R1MWNThHEvL-93" value="0" style="rounded=0;whiteSpace=wrap;html=1;" vertex="1" parent="kc2935-0-R1MWNThHEvL-91">
          <mxGeometry x="25" width="25" height="20" as="geometry" />
        </mxCell>
        <mxCell id="kc2935-0-R1MWNThHEvL-94" value="1" style="rounded=0;whiteSpace=wrap;html=1;" vertex="1" parent="kc2935-0-R1MWNThHEvL-91">
          <mxGeometry x="50" width="25" height="20" as="geometry" />
        </mxCell>
        <mxCell id="kc2935-0-R1MWNThHEvL-95" value="1" style="rounded=0;whiteSpace=wrap;html=1;" vertex="1" parent="kc2935-0-R1MWNThHEvL-91">
          <mxGeometry x="75" width="25" height="20" as="geometry" />
        </mxCell>
        <mxCell id="kc2935-0-R1MWNThHEvL-96" value="0" style="rounded=0;whiteSpace=wrap;html=1;" vertex="1" parent="kc2935-0-R1MWNThHEvL-91">
          <mxGeometry x="100" width="25" height="20" as="geometry" />
        </mxCell>
        <mxCell id="kc2935-0-R1MWNThHEvL-97" value="1" style="rounded=0;whiteSpace=wrap;html=1;" vertex="1" parent="kc2935-0-R1MWNThHEvL-91">
          <mxGeometry x="125" width="25" height="20" as="geometry" />
        </mxCell>
        <mxCell id="kc2935-0-R1MWNThHEvL-99" value="Miner 2" style="rounded=1;whiteSpace=wrap;html=1;fillColor=#f8cecc;strokeColor=#b85450;" vertex="1" parent="1">
          <mxGeometry x="605" y="365" width="45" height="60" as="geometry" />
        </mxCell>
        <mxCell id="kc2935-0-R1MWNThHEvL-100" value="Miner 3" style="rounded=1;whiteSpace=wrap;html=1;fillColor=#f8cecc;strokeColor=#b85450;" vertex="1" parent="1">
          <mxGeometry x="605" y="440" width="45" height="60" as="geometry" />
        </mxCell>
        <mxCell id="kc2935-0-R1MWNThHEvL-101" value="" style="endArrow=classic;html=1;rounded=0;entryX=0;entryY=0.5;entryDx=0;entryDy=0;" edge="1" parent="1" target="kc2935-0-R1MWNThHEvL-9">
          <mxGeometry width="50" height="50" relative="1" as="geometry">
            <mxPoint x="580" y="320" as="sourcePoint" />
            <mxPoint x="190" y="408" as="targetPoint" />
          </mxGeometry>
        </mxCell>
        <mxCell id="kc2935-0-R1MWNThHEvL-103" value="" style="endArrow=classic;html=1;rounded=0;entryX=-0.033;entryY=0.489;entryDx=0;entryDy=0;entryPerimeter=0;" edge="1" parent="1" target="kc2935-0-R1MWNThHEvL-100">
          <mxGeometry width="50" height="50" relative="1" as="geometry">
            <mxPoint x="580" y="469.86" as="sourcePoint" />
            <mxPoint x="610" y="469.86" as="targetPoint" />
          </mxGeometry>
        </mxCell>
        <mxCell id="kc2935-0-R1MWNThHEvL-106" value="" style="endArrow=classic;html=1;rounded=0;exitX=1;exitY=0.5;exitDx=0;exitDy=0;fillColor=#f8cecc;strokeColor=#b85450;" edge="1" parent="1" source="kc2935-0-R1MWNThHEvL-9">
          <mxGeometry width="50" height="50" relative="1" as="geometry">
            <mxPoint x="740" y="440" as="sourcePoint" />
            <mxPoint x="710" y="320" as="targetPoint" />
          </mxGeometry>
        </mxCell>
        <mxCell id="kc2935-0-R1MWNThHEvL-108" value="" style="group" vertex="1" connectable="0" parent="1">
          <mxGeometry x="710" y="285.5" width="100" height="70" as="geometry" />
        </mxCell>
        <mxCell id="kc2935-0-R1MWNThHEvL-109" value="" style="ellipse;whiteSpace=wrap;html=1;aspect=fixed;fillColor=#ffe6cc;strokeColor=#d79b00;" vertex="1" parent="kc2935-0-R1MWNThHEvL-108">
          <mxGeometry width="17.5" height="17.5" as="geometry" />
        </mxCell>
        <mxCell id="kc2935-0-R1MWNThHEvL-110" value="" style="ellipse;whiteSpace=wrap;html=1;aspect=fixed;fillColor=#ffe6cc;strokeColor=#d79b00;" vertex="1" parent="kc2935-0-R1MWNThHEvL-108">
          <mxGeometry y="26.25" width="17.5" height="17.5" as="geometry" />
        </mxCell>
        <mxCell id="kc2935-0-R1MWNThHEvL-111" value="" style="ellipse;whiteSpace=wrap;html=1;aspect=fixed;fillColor=#ffe6cc;strokeColor=#d79b00;" vertex="1" parent="kc2935-0-R1MWNThHEvL-108">
          <mxGeometry y="52.5" width="17.5" height="17.5" as="geometry" />
        </mxCell>
        <mxCell id="kc2935-0-R1MWNThHEvL-112" value="" style="ellipse;whiteSpace=wrap;html=1;aspect=fixed;fillColor=#fff2cc;strokeColor=#d6b656;" vertex="1" parent="kc2935-0-R1MWNThHEvL-108">
          <mxGeometry x="27.272727272727273" y="26.25" width="17.5" height="17.5" as="geometry" />
        </mxCell>
        <mxCell id="kc2935-0-R1MWNThHEvL-113" value="" style="ellipse;whiteSpace=wrap;html=1;aspect=fixed;fillColor=#dae8fc;strokeColor=#6c8ebf;" vertex="1" parent="kc2935-0-R1MWNThHEvL-108">
          <mxGeometry x="54.54545454545455" y="26.25" width="17.5" height="17.5" as="geometry" />
        </mxCell>
        <mxCell id="kc2935-0-R1MWNThHEvL-114" value="" style="ellipse;whiteSpace=wrap;html=1;aspect=fixed;fillColor=#d5e8d4;strokeColor=#82b366;" vertex="1" parent="kc2935-0-R1MWNThHEvL-108">
          <mxGeometry x="81.81818181818181" y="26.25" width="17.5" height="17.5" as="geometry" />
        </mxCell>
        <mxCell id="kc2935-0-R1MWNThHEvL-115" value="" style="endArrow=none;html=1;rounded=0;entryX=0;entryY=0.5;entryDx=0;entryDy=0;exitX=1;exitY=0.5;exitDx=0;exitDy=0;" edge="1" parent="kc2935-0-R1MWNThHEvL-108" source="kc2935-0-R1MWNThHEvL-109" target="kc2935-0-R1MWNThHEvL-112">
          <mxGeometry width="50" height="50" relative="1" as="geometry">
            <mxPoint x="9.09090909090909" y="8.75" as="sourcePoint" />
            <mxPoint x="127.27272727272727" y="-148.75" as="targetPoint" />
          </mxGeometry>
        </mxCell>
        <mxCell id="kc2935-0-R1MWNThHEvL-116" value="" style="endArrow=none;html=1;rounded=0;entryX=0;entryY=0.5;entryDx=0;entryDy=0;exitX=1;exitY=0.5;exitDx=0;exitDy=0;" edge="1" parent="kc2935-0-R1MWNThHEvL-108" source="kc2935-0-R1MWNThHEvL-110" target="kc2935-0-R1MWNThHEvL-112">
          <mxGeometry width="50" height="50" relative="1" as="geometry">
            <mxPoint x="27.272727272727273" y="17.5" as="sourcePoint" />
            <mxPoint x="36.36363636363636" y="43.75" as="targetPoint" />
          </mxGeometry>
        </mxCell>
        <mxCell id="kc2935-0-R1MWNThHEvL-117" value="" style="endArrow=none;html=1;rounded=0;exitX=1;exitY=0.5;exitDx=0;exitDy=0;entryX=0;entryY=0.5;entryDx=0;entryDy=0;" edge="1" parent="kc2935-0-R1MWNThHEvL-108" source="kc2935-0-R1MWNThHEvL-111" target="kc2935-0-R1MWNThHEvL-112">
          <mxGeometry width="50" height="50" relative="1" as="geometry">
            <mxPoint x="36.36363636363636" y="26.25" as="sourcePoint" />
            <mxPoint x="63.63636363636363" y="52.5" as="targetPoint" />
          </mxGeometry>
        </mxCell>
        <mxCell id="kc2935-0-R1MWNThHEvL-118" value="" style="endArrow=none;html=1;rounded=0;entryX=0;entryY=0.5;entryDx=0;entryDy=0;exitX=1;exitY=0.5;exitDx=0;exitDy=0;" edge="1" parent="kc2935-0-R1MWNThHEvL-108" source="kc2935-0-R1MWNThHEvL-112" target="kc2935-0-R1MWNThHEvL-113">
          <mxGeometry width="50" height="50" relative="1" as="geometry">
            <mxPoint x="27.272727272727273" y="17.5" as="sourcePoint" />
            <mxPoint x="36.36363636363636" y="43.75" as="targetPoint" />
          </mxGeometry>
        </mxCell>
        <mxCell id="kc2935-0-R1MWNThHEvL-119" value="" style="endArrow=none;html=1;rounded=0;entryX=1;entryY=0.5;entryDx=0;entryDy=0;exitX=0;exitY=0.5;exitDx=0;exitDy=0;" edge="1" parent="kc2935-0-R1MWNThHEvL-108" source="kc2935-0-R1MWNThHEvL-114" target="kc2935-0-R1MWNThHEvL-113">
          <mxGeometry width="50" height="50" relative="1" as="geometry">
            <mxPoint x="54.54545454545455" y="43.75" as="sourcePoint" />
            <mxPoint x="63.63636363636363" y="43.75" as="targetPoint" />
          </mxGeometry>
        </mxCell>
        <mxCell id="kc2935-0-R1MWNThHEvL-120" value="" style="group" vertex="1" connectable="0" parent="1">
          <mxGeometry x="711" y="359" width="100" height="70" as="geometry" />
        </mxCell>
        <mxCell id="kc2935-0-R1MWNThHEvL-121" value="" style="ellipse;whiteSpace=wrap;html=1;aspect=fixed;fillColor=#ffe6cc;strokeColor=#d79b00;" vertex="1" parent="kc2935-0-R1MWNThHEvL-120">
          <mxGeometry width="17.5" height="17.5" as="geometry" />
        </mxCell>
        <mxCell id="kc2935-0-R1MWNThHEvL-122" value="" style="ellipse;whiteSpace=wrap;html=1;aspect=fixed;fillColor=#ffe6cc;strokeColor=#d79b00;" vertex="1" parent="kc2935-0-R1MWNThHEvL-120">
          <mxGeometry y="26.25" width="17.5" height="17.5" as="geometry" />
        </mxCell>
        <mxCell id="kc2935-0-R1MWNThHEvL-123" value="" style="ellipse;whiteSpace=wrap;html=1;aspect=fixed;fillColor=#ffe6cc;strokeColor=#d79b00;" vertex="1" parent="kc2935-0-R1MWNThHEvL-120">
          <mxGeometry y="52.5" width="17.5" height="17.5" as="geometry" />
        </mxCell>
        <mxCell id="kc2935-0-R1MWNThHEvL-124" value="" style="ellipse;whiteSpace=wrap;html=1;aspect=fixed;fillColor=#fff2cc;strokeColor=#d6b656;" vertex="1" parent="kc2935-0-R1MWNThHEvL-120">
          <mxGeometry x="27.272727272727273" y="8.75" width="17.5" height="17.5" as="geometry" />
        </mxCell>
        <mxCell id="kc2935-0-R1MWNThHEvL-125" value="" style="ellipse;whiteSpace=wrap;html=1;aspect=fixed;fillColor=#fff2cc;strokeColor=#d6b656;" vertex="1" parent="kc2935-0-R1MWNThHEvL-120">
          <mxGeometry x="27.272727272727273" y="43.75" width="17.5" height="17.5" as="geometry" />
        </mxCell>
        <mxCell id="kc2935-0-R1MWNThHEvL-126" value="" style="ellipse;whiteSpace=wrap;html=1;aspect=fixed;fillColor=#dae8fc;strokeColor=#6c8ebf;" vertex="1" parent="kc2935-0-R1MWNThHEvL-120">
          <mxGeometry x="54.54545454545455" y="26.25" width="17.5" height="17.5" as="geometry" />
        </mxCell>
        <mxCell id="kc2935-0-R1MWNThHEvL-127" value="" style="endArrow=none;html=1;rounded=0;entryX=0;entryY=0.5;entryDx=0;entryDy=0;exitX=1;exitY=0.5;exitDx=0;exitDy=0;" edge="1" parent="kc2935-0-R1MWNThHEvL-120" source="kc2935-0-R1MWNThHEvL-121" target="kc2935-0-R1MWNThHEvL-124">
          <mxGeometry width="50" height="50" relative="1" as="geometry">
            <mxPoint x="9.09090909090909" y="8.75" as="sourcePoint" />
            <mxPoint x="127.27272727272727" y="-148.75" as="targetPoint" />
          </mxGeometry>
        </mxCell>
        <mxCell id="kc2935-0-R1MWNThHEvL-128" value="" style="endArrow=none;html=1;rounded=0;entryX=0;entryY=0.5;entryDx=0;entryDy=0;exitX=1;exitY=0.5;exitDx=0;exitDy=0;" edge="1" parent="kc2935-0-R1MWNThHEvL-120" source="kc2935-0-R1MWNThHEvL-122" target="kc2935-0-R1MWNThHEvL-124">
          <mxGeometry width="50" height="50" relative="1" as="geometry">
            <mxPoint x="27.272727272727273" y="17.5" as="sourcePoint" />
            <mxPoint x="36.36363636363636" y="43.75" as="targetPoint" />
          </mxGeometry>
        </mxCell>
        <mxCell id="kc2935-0-R1MWNThHEvL-129" value="" style="endArrow=none;html=1;rounded=0;exitX=1;exitY=0.5;exitDx=0;exitDy=0;entryX=0;entryY=0.5;entryDx=0;entryDy=0;" edge="1" parent="kc2935-0-R1MWNThHEvL-120" source="kc2935-0-R1MWNThHEvL-123" target="kc2935-0-R1MWNThHEvL-124">
          <mxGeometry width="50" height="50" relative="1" as="geometry">
            <mxPoint x="36.36363636363636" y="26.25" as="sourcePoint" />
            <mxPoint x="63.63636363636363" y="52.5" as="targetPoint" />
          </mxGeometry>
        </mxCell>
        <mxCell id="kc2935-0-R1MWNThHEvL-130" value="" style="endArrow=none;html=1;rounded=0;entryX=1;entryY=0.5;entryDx=0;entryDy=0;exitX=0;exitY=0.5;exitDx=0;exitDy=0;" edge="1" parent="kc2935-0-R1MWNThHEvL-120" source="kc2935-0-R1MWNThHEvL-126" target="kc2935-0-R1MWNThHEvL-125">
          <mxGeometry width="50" height="50" relative="1" as="geometry">
            <mxPoint x="54.54545454545455" y="43.75" as="sourcePoint" />
            <mxPoint x="63.63636363636363" y="43.75" as="targetPoint" />
          </mxGeometry>
        </mxCell>
        <mxCell id="kc2935-0-R1MWNThHEvL-131" value="" style="endArrow=none;html=1;rounded=0;entryX=0.99;entryY=0.424;entryDx=0;entryDy=0;exitX=0;exitY=0.5;exitDx=0;exitDy=0;entryPerimeter=0;" edge="1" parent="kc2935-0-R1MWNThHEvL-120" source="kc2935-0-R1MWNThHEvL-126" target="kc2935-0-R1MWNThHEvL-124">
          <mxGeometry width="50" height="50" relative="1" as="geometry">
            <mxPoint x="63.63636363636363" y="35" as="sourcePoint" />
            <mxPoint x="54.54545454545455" y="52.5" as="targetPoint" />
          </mxGeometry>
        </mxCell>
        <mxCell id="kc2935-0-R1MWNThHEvL-132" value="" style="endArrow=none;html=1;rounded=0;entryX=0;entryY=0.5;entryDx=0;entryDy=0;" edge="1" parent="kc2935-0-R1MWNThHEvL-120" target="kc2935-0-R1MWNThHEvL-125">
          <mxGeometry width="50" height="50" relative="1" as="geometry">
            <mxPoint x="18.18181818181818" y="8.75" as="sourcePoint" />
            <mxPoint x="36.36363636363636" y="26.25" as="targetPoint" />
          </mxGeometry>
        </mxCell>
        <mxCell id="kc2935-0-R1MWNThHEvL-133" value="" style="endArrow=none;html=1;rounded=0;entryX=0;entryY=0.5;entryDx=0;entryDy=0;" edge="1" parent="kc2935-0-R1MWNThHEvL-120" target="kc2935-0-R1MWNThHEvL-125">
          <mxGeometry width="50" height="50" relative="1" as="geometry">
            <mxPoint x="18.18181818181818" y="35" as="sourcePoint" />
            <mxPoint x="45.45454545454545" y="35" as="targetPoint" />
          </mxGeometry>
        </mxCell>
        <mxCell id="kc2935-0-R1MWNThHEvL-134" value="" style="endArrow=none;html=1;rounded=0;entryX=0.001;entryY=0.61;entryDx=0;entryDy=0;exitX=1;exitY=0.5;exitDx=0;exitDy=0;entryPerimeter=0;" edge="1" parent="kc2935-0-R1MWNThHEvL-120" source="kc2935-0-R1MWNThHEvL-123" target="kc2935-0-R1MWNThHEvL-125">
          <mxGeometry width="50" height="50" relative="1" as="geometry">
            <mxPoint x="45.45454545454545" y="35" as="sourcePoint" />
            <mxPoint x="54.54545454545455" y="43.75" as="targetPoint" />
          </mxGeometry>
        </mxCell>
        <mxCell id="kc2935-0-R1MWNThHEvL-135" value="" style="ellipse;whiteSpace=wrap;html=1;aspect=fixed;fillColor=#d5e8d4;strokeColor=#82b366;" vertex="1" parent="kc2935-0-R1MWNThHEvL-120">
          <mxGeometry x="81.81818181818181" y="26.25" width="17.5" height="17.5" as="geometry" />
        </mxCell>
        <mxCell id="kc2935-0-R1MWNThHEvL-136" value="" style="endArrow=none;html=1;rounded=0;entryX=0.5;entryY=0;entryDx=0;entryDy=0;exitX=1.001;exitY=0.39;exitDx=0;exitDy=0;exitPerimeter=0;" edge="1" parent="kc2935-0-R1MWNThHEvL-120" source="kc2935-0-R1MWNThHEvL-124" target="kc2935-0-R1MWNThHEvL-135">
          <mxGeometry width="50" height="50" relative="1" as="geometry">
            <mxPoint x="40.90909090909091" y="8.75" as="sourcePoint" />
            <mxPoint x="121.27272727272725" y="15.364999999999952" as="targetPoint" />
            <Array as="points">
              <mxPoint x="72.72727272727272" y="17.5" />
            </Array>
          </mxGeometry>
        </mxCell>
        <mxCell id="kc2935-0-R1MWNThHEvL-137" value="" style="endArrow=none;html=1;rounded=0;entryX=1;entryY=0.5;entryDx=0;entryDy=0;exitX=0;exitY=0.5;exitDx=0;exitDy=0;" edge="1" parent="kc2935-0-R1MWNThHEvL-120">
          <mxGeometry width="50" height="50" relative="1" as="geometry">
            <mxPoint x="81.81818181818181" y="34.894999999999996" as="sourcePoint" />
            <mxPoint x="72.72727272727272" y="34.894999999999996" as="targetPoint" />
          </mxGeometry>
        </mxCell>
        <mxCell id="kc2935-0-R1MWNThHEvL-138" value="" style="group" vertex="1" connectable="0" parent="1">
          <mxGeometry x="712" y="436.5" width="100" height="70" as="geometry" />
        </mxCell>
        <mxCell id="kc2935-0-R1MWNThHEvL-139" value="" style="ellipse;whiteSpace=wrap;html=1;aspect=fixed;fillColor=#ffe6cc;strokeColor=#d79b00;" vertex="1" parent="kc2935-0-R1MWNThHEvL-138">
          <mxGeometry width="17.5" height="17.5" as="geometry" />
        </mxCell>
        <mxCell id="kc2935-0-R1MWNThHEvL-140" value="" style="ellipse;whiteSpace=wrap;html=1;aspect=fixed;fillColor=#ffe6cc;strokeColor=#d79b00;" vertex="1" parent="kc2935-0-R1MWNThHEvL-138">
          <mxGeometry y="26.25" width="17.5" height="17.5" as="geometry" />
        </mxCell>
        <mxCell id="kc2935-0-R1MWNThHEvL-141" value="" style="ellipse;whiteSpace=wrap;html=1;aspect=fixed;fillColor=#ffe6cc;strokeColor=#d79b00;" vertex="1" parent="kc2935-0-R1MWNThHEvL-138">
          <mxGeometry y="52.5" width="17.5" height="17.5" as="geometry" />
        </mxCell>
        <mxCell id="kc2935-0-R1MWNThHEvL-142" value="" style="ellipse;whiteSpace=wrap;html=1;aspect=fixed;fillColor=#fff2cc;strokeColor=#d6b656;" vertex="1" parent="kc2935-0-R1MWNThHEvL-138">
          <mxGeometry x="27.272727272727273" y="8.75" width="17.5" height="17.5" as="geometry" />
        </mxCell>
        <mxCell id="kc2935-0-R1MWNThHEvL-143" value="" style="ellipse;whiteSpace=wrap;html=1;aspect=fixed;fillColor=#fff2cc;strokeColor=#d6b656;" vertex="1" parent="kc2935-0-R1MWNThHEvL-138">
          <mxGeometry x="27.272727272727273" y="43.75" width="17.5" height="17.5" as="geometry" />
        </mxCell>
        <mxCell id="kc2935-0-R1MWNThHEvL-144" value="" style="ellipse;whiteSpace=wrap;html=1;aspect=fixed;fillColor=#dae8fc;strokeColor=#6c8ebf;" vertex="1" parent="kc2935-0-R1MWNThHEvL-138">
          <mxGeometry x="54.54545454545455" y="8.75" width="17.5" height="17.5" as="geometry" />
        </mxCell>
        <mxCell id="kc2935-0-R1MWNThHEvL-145" value="" style="endArrow=none;html=1;rounded=0;entryX=0;entryY=0.5;entryDx=0;entryDy=0;exitX=1;exitY=0.5;exitDx=0;exitDy=0;" edge="1" parent="kc2935-0-R1MWNThHEvL-138" source="kc2935-0-R1MWNThHEvL-139" target="kc2935-0-R1MWNThHEvL-142">
          <mxGeometry width="50" height="50" relative="1" as="geometry">
            <mxPoint x="9.09090909090909" y="8.75" as="sourcePoint" />
            <mxPoint x="127.27272727272727" y="-148.75" as="targetPoint" />
          </mxGeometry>
        </mxCell>
        <mxCell id="kc2935-0-R1MWNThHEvL-146" value="" style="endArrow=none;html=1;rounded=0;entryX=0;entryY=0.5;entryDx=0;entryDy=0;exitX=1;exitY=0.5;exitDx=0;exitDy=0;" edge="1" parent="kc2935-0-R1MWNThHEvL-138" source="kc2935-0-R1MWNThHEvL-140" target="kc2935-0-R1MWNThHEvL-142">
          <mxGeometry width="50" height="50" relative="1" as="geometry">
            <mxPoint x="27.272727272727273" y="17.5" as="sourcePoint" />
            <mxPoint x="36.36363636363636" y="43.75" as="targetPoint" />
          </mxGeometry>
        </mxCell>
        <mxCell id="kc2935-0-R1MWNThHEvL-147" value="" style="endArrow=none;html=1;rounded=0;exitX=1;exitY=0.5;exitDx=0;exitDy=0;entryX=0;entryY=0.5;entryDx=0;entryDy=0;" edge="1" parent="kc2935-0-R1MWNThHEvL-138" source="kc2935-0-R1MWNThHEvL-141" target="kc2935-0-R1MWNThHEvL-142">
          <mxGeometry width="50" height="50" relative="1" as="geometry">
            <mxPoint x="36.36363636363636" y="26.25" as="sourcePoint" />
            <mxPoint x="63.63636363636363" y="52.5" as="targetPoint" />
          </mxGeometry>
        </mxCell>
        <mxCell id="kc2935-0-R1MWNThHEvL-148" value="" style="endArrow=none;html=1;rounded=0;entryX=1;entryY=0.5;entryDx=0;entryDy=0;exitX=0;exitY=0.5;exitDx=0;exitDy=0;" edge="1" parent="kc2935-0-R1MWNThHEvL-138" source="kc2935-0-R1MWNThHEvL-144" target="kc2935-0-R1MWNThHEvL-143">
          <mxGeometry width="50" height="50" relative="1" as="geometry">
            <mxPoint x="54.54545454545455" y="43.75" as="sourcePoint" />
            <mxPoint x="63.63636363636363" y="43.75" as="targetPoint" />
          </mxGeometry>
        </mxCell>
        <mxCell id="kc2935-0-R1MWNThHEvL-149" value="" style="endArrow=none;html=1;rounded=0;entryX=0.99;entryY=0.424;entryDx=0;entryDy=0;exitX=0;exitY=0.5;exitDx=0;exitDy=0;entryPerimeter=0;" edge="1" parent="kc2935-0-R1MWNThHEvL-138" source="kc2935-0-R1MWNThHEvL-144" target="kc2935-0-R1MWNThHEvL-142">
          <mxGeometry width="50" height="50" relative="1" as="geometry">
            <mxPoint x="63.63636363636363" y="35" as="sourcePoint" />
            <mxPoint x="54.54545454545455" y="52.5" as="targetPoint" />
          </mxGeometry>
        </mxCell>
        <mxCell id="kc2935-0-R1MWNThHEvL-150" value="" style="endArrow=none;html=1;rounded=0;entryX=0;entryY=0.5;entryDx=0;entryDy=0;" edge="1" parent="kc2935-0-R1MWNThHEvL-138" target="kc2935-0-R1MWNThHEvL-143">
          <mxGeometry width="50" height="50" relative="1" as="geometry">
            <mxPoint x="18.18181818181818" y="8.75" as="sourcePoint" />
            <mxPoint x="36.36363636363636" y="26.25" as="targetPoint" />
          </mxGeometry>
        </mxCell>
        <mxCell id="kc2935-0-R1MWNThHEvL-151" value="" style="endArrow=none;html=1;rounded=0;entryX=0;entryY=0.5;entryDx=0;entryDy=0;" edge="1" parent="kc2935-0-R1MWNThHEvL-138" target="kc2935-0-R1MWNThHEvL-143">
          <mxGeometry width="50" height="50" relative="1" as="geometry">
            <mxPoint x="18.18181818181818" y="35" as="sourcePoint" />
            <mxPoint x="45.45454545454545" y="35" as="targetPoint" />
          </mxGeometry>
        </mxCell>
        <mxCell id="kc2935-0-R1MWNThHEvL-152" value="" style="endArrow=none;html=1;rounded=0;entryX=0.001;entryY=0.61;entryDx=0;entryDy=0;exitX=1;exitY=0.5;exitDx=0;exitDy=0;entryPerimeter=0;" edge="1" parent="kc2935-0-R1MWNThHEvL-138" source="kc2935-0-R1MWNThHEvL-141" target="kc2935-0-R1MWNThHEvL-143">
          <mxGeometry width="50" height="50" relative="1" as="geometry">
            <mxPoint x="45.45454545454545" y="35" as="sourcePoint" />
            <mxPoint x="54.54545454545455" y="43.75" as="targetPoint" />
          </mxGeometry>
        </mxCell>
        <mxCell id="kc2935-0-R1MWNThHEvL-153" value="" style="ellipse;whiteSpace=wrap;html=1;aspect=fixed;fillColor=#dae8fc;strokeColor=#6c8ebf;" vertex="1" parent="kc2935-0-R1MWNThHEvL-138">
          <mxGeometry x="54.54545454545455" y="43.75" width="17.5" height="17.5" as="geometry" />
        </mxCell>
        <mxCell id="kc2935-0-R1MWNThHEvL-154" value="" style="endArrow=none;html=1;rounded=0;exitX=0;exitY=0.5;exitDx=0;exitDy=0;" edge="1" parent="kc2935-0-R1MWNThHEvL-138" source="kc2935-0-R1MWNThHEvL-153">
          <mxGeometry width="50" height="50" relative="1" as="geometry">
            <mxPoint x="81.81818181818181" y="34.894999999999996" as="sourcePoint" />
            <mxPoint x="45.45454545454545" y="17.5" as="targetPoint" />
          </mxGeometry>
        </mxCell>
        <mxCell id="kc2935-0-R1MWNThHEvL-155" value="" style="endArrow=none;html=1;rounded=0;entryX=1;entryY=0.5;entryDx=0;entryDy=0;exitX=-0.022;exitY=0.39;exitDx=0;exitDy=0;exitPerimeter=0;" edge="1" parent="kc2935-0-R1MWNThHEvL-138" source="kc2935-0-R1MWNThHEvL-153" target="kc2935-0-R1MWNThHEvL-142">
          <mxGeometry width="50" height="50" relative="1" as="geometry">
            <mxPoint x="63.63636363636363" y="26.25" as="sourcePoint" />
            <mxPoint x="54.54545454545455" y="24.5" as="targetPoint" />
          </mxGeometry>
        </mxCell>
        <mxCell id="kc2935-0-R1MWNThHEvL-156" value="" style="ellipse;whiteSpace=wrap;html=1;aspect=fixed;fillColor=#d5e8d4;strokeColor=#82b366;" vertex="1" parent="kc2935-0-R1MWNThHEvL-138">
          <mxGeometry x="81.81818181818181" y="26.25" width="17.5" height="17.5" as="geometry" />
        </mxCell>
        <mxCell id="kc2935-0-R1MWNThHEvL-157" value="" style="endArrow=none;html=1;rounded=0;entryX=1;entryY=0.5;entryDx=0;entryDy=0;exitX=0;exitY=0.5;exitDx=0;exitDy=0;" edge="1" parent="kc2935-0-R1MWNThHEvL-138" source="kc2935-0-R1MWNThHEvL-153" target="kc2935-0-R1MWNThHEvL-143">
          <mxGeometry width="50" height="50" relative="1" as="geometry">
            <mxPoint x="63.63636363636363" y="26.25" as="sourcePoint" />
            <mxPoint x="54.54545454545455" y="24.5" as="targetPoint" />
          </mxGeometry>
        </mxCell>
        <mxCell id="kc2935-0-R1MWNThHEvL-158" value="" style="endArrow=none;html=1;rounded=0;entryX=1;entryY=0.5;entryDx=0;entryDy=0;exitX=0;exitY=0.5;exitDx=0;exitDy=0;" edge="1" parent="kc2935-0-R1MWNThHEvL-138" source="kc2935-0-R1MWNThHEvL-156" target="kc2935-0-R1MWNThHEvL-153">
          <mxGeometry width="50" height="50" relative="1" as="geometry">
            <mxPoint x="63.63636363636363" y="61.25" as="sourcePoint" />
            <mxPoint x="54.54545454545455" y="61.25" as="targetPoint" />
          </mxGeometry>
        </mxCell>
        <mxCell id="kc2935-0-R1MWNThHEvL-159" value="" style="endArrow=none;html=1;rounded=0;exitX=1;exitY=0.5;exitDx=0;exitDy=0;entryX=-0.022;entryY=0.39;entryDx=0;entryDy=0;entryPerimeter=0;" edge="1" parent="kc2935-0-R1MWNThHEvL-138" source="kc2935-0-R1MWNThHEvL-144" target="kc2935-0-R1MWNThHEvL-156">
          <mxGeometry width="50" height="50" relative="1" as="geometry">
            <mxPoint x="81.81818181818181" y="43.75" as="sourcePoint" />
            <mxPoint x="72.72727272727272" y="35" as="targetPoint" />
          </mxGeometry>
        </mxCell>
        <mxCell id="kc2935-0-R1MWNThHEvL-160" value="" style="endArrow=classic;html=1;rounded=0;exitX=1;exitY=0.5;exitDx=0;exitDy=0;fillColor=#f8cecc;strokeColor=#b85450;" edge="1" parent="1" source="kc2935-0-R1MWNThHEvL-99">
          <mxGeometry width="50" height="50" relative="1" as="geometry">
            <mxPoint x="680" y="390" as="sourcePoint" />
            <mxPoint x="710" y="395" as="targetPoint" />
          </mxGeometry>
        </mxCell>
        <mxCell id="kc2935-0-R1MWNThHEvL-161" value="" style="endArrow=classic;html=1;rounded=0;exitX=1;exitY=0.5;exitDx=0;exitDy=0;fillColor=#f8cecc;strokeColor=#b85450;" edge="1" parent="1" source="kc2935-0-R1MWNThHEvL-100">
          <mxGeometry width="50" height="50" relative="1" as="geometry">
            <mxPoint x="670" y="470.5" as="sourcePoint" />
            <mxPoint x="710" y="470.5" as="targetPoint" />
          </mxGeometry>
        </mxCell>
        <mxCell id="kc2935-0-R1MWNThHEvL-163" value="" style="endArrow=classic;html=1;rounded=0;entryX=-0.033;entryY=0.489;entryDx=0;entryDy=0;entryPerimeter=0;" edge="1" parent="1">
          <mxGeometry width="50" height="50" relative="1" as="geometry">
            <mxPoint x="580" y="394.43" as="sourcePoint" />
            <mxPoint x="603" y="393.57" as="targetPoint" />
          </mxGeometry>
        </mxCell>
        <mxCell id="kc2935-0-R1MWNThHEvL-164" value="&lt;div&gt;Train&lt;/div&gt;&lt;div&gt;Pytorch&lt;/div&gt;" style="rounded=1;whiteSpace=wrap;html=1;fillColor=#f8cecc;strokeColor=#b85450;" vertex="1" parent="1">
          <mxGeometry x="820" y="290.5" width="60" height="60" as="geometry" />
        </mxCell>
        <mxCell id="kc2935-0-R1MWNThHEvL-165" value="Train&lt;br&gt;Pytorch" style="rounded=1;whiteSpace=wrap;html=1;fillColor=#f8cecc;strokeColor=#b85450;" vertex="1" parent="1">
          <mxGeometry x="820" y="364" width="60" height="60" as="geometry" />
        </mxCell>
        <mxCell id="kc2935-0-R1MWNThHEvL-166" value="&lt;div&gt;Train&lt;/div&gt;&lt;div&gt;Pytorch&lt;/div&gt;" style="rounded=1;whiteSpace=wrap;html=1;fillColor=#f8cecc;strokeColor=#b85450;" vertex="1" parent="1">
          <mxGeometry x="820" y="441.5" width="60" height="60" as="geometry" />
        </mxCell>
        <mxCell id="kc2935-0-R1MWNThHEvL-170" value="" style="endArrow=classic;html=1;rounded=0;exitX=1;exitY=0.5;exitDx=0;exitDy=0;entryX=1;entryY=0.5;entryDx=0;entryDy=0;fillColor=#d80073;strokeColor=#A50040;" edge="1" parent="1" source="kc2935-0-R1MWNThHEvL-164">
          <mxGeometry width="50" height="50" relative="1" as="geometry">
            <mxPoint x="570" y="520" as="sourcePoint" />
            <mxPoint x="865" y="642.5" as="targetPoint" />
            <Array as="points">
              <mxPoint x="920" y="320" />
              <mxPoint x="920" y="643" />
            </Array>
          </mxGeometry>
        </mxCell>
        <mxCell id="kc2935-0-R1MWNThHEvL-171" value="" style="endArrow=classic;html=1;rounded=0;exitX=1;exitY=0.5;exitDx=0;exitDy=0;entryX=0.995;entryY=0.433;entryDx=0;entryDy=0;entryPerimeter=0;fillColor=#d80073;strokeColor=#A50040;" edge="1" parent="1" source="kc2935-0-R1MWNThHEvL-165">
          <mxGeometry width="50" height="50" relative="1" as="geometry">
            <mxPoint x="875" y="331" as="sourcePoint" />
            <mxPoint x="864.1500000000001" y="626.085" as="targetPoint" />
            <Array as="points">
              <mxPoint x="910" y="394" />
              <mxPoint x="910" y="626" />
            </Array>
          </mxGeometry>
        </mxCell>
        <mxCell id="kc2935-0-R1MWNThHEvL-172" value="" style="endArrow=classic;html=1;rounded=0;exitX=0.981;exitY=0.474;exitDx=0;exitDy=0;exitPerimeter=0;fillColor=#d80073;strokeColor=#A50040;" edge="1" parent="1" source="kc2935-0-R1MWNThHEvL-166">
          <mxGeometry width="50" height="50" relative="1" as="geometry">
            <mxPoint x="870" y="470" as="sourcePoint" />
            <mxPoint x="865" y="610" as="targetPoint" />
            <Array as="points">
              <mxPoint x="895" y="470" />
              <mxPoint x="895" y="610" />
            </Array>
          </mxGeometry>
        </mxCell>
        <mxCell id="kc2935-0-R1MWNThHEvL-173" value="&lt;div style=&quot;font-size: 10px;&quot; align=&quot;left&quot;&gt;&lt;font style=&quot;font-size: 10px;&quot;&gt;Accuracy = None&lt;br&gt;&lt;/font&gt;&lt;/div&gt;&lt;div style=&quot;font-size: 10px;&quot; align=&quot;left&quot;&gt;&lt;font style=&quot;font-size: 10px;&quot;&gt;Parameters = None&lt;/font&gt;&lt;/div&gt;&lt;div style=&quot;font-size: 10px;&quot; align=&quot;left&quot;&gt;&lt;font style=&quot;font-size: 10px;&quot;&gt;Flops = None&lt;/font&gt;&lt;/div&gt;" style="text;html=1;align=left;verticalAlign=middle;whiteSpace=wrap;rounded=0;" vertex="1" parent="1">
          <mxGeometry x="420" y="330" width="130" height="40" as="geometry" />
        </mxCell>
        <mxCell id="kc2935-0-R1MWNThHEvL-174" value="&lt;div style=&quot;font-size: 10px;&quot; align=&quot;left&quot;&gt;&lt;font style=&quot;font-size: 10px;&quot;&gt;Accuracy = None&lt;br&gt;&lt;/font&gt;&lt;/div&gt;&lt;div style=&quot;font-size: 10px;&quot; align=&quot;left&quot;&gt;&lt;font style=&quot;font-size: 10px;&quot;&gt;Parameters = None&lt;/font&gt;&lt;/div&gt;&lt;div style=&quot;font-size: 10px;&quot; align=&quot;left&quot;&gt;&lt;font style=&quot;font-size: 10px;&quot;&gt;Flops = None&lt;/font&gt;&lt;/div&gt;" style="text;html=1;align=left;verticalAlign=middle;whiteSpace=wrap;rounded=0;" vertex="1" parent="1">
          <mxGeometry x="420" y="401.5" width="130" height="40" as="geometry" />
        </mxCell>
        <mxCell id="kc2935-0-R1MWNThHEvL-175" value="&lt;div style=&quot;font-size: 10px;&quot; align=&quot;left&quot;&gt;&lt;font style=&quot;font-size: 10px;&quot;&gt;Accuracy = None&lt;br&gt;&lt;/font&gt;&lt;/div&gt;&lt;div style=&quot;font-size: 10px;&quot; align=&quot;left&quot;&gt;&lt;font style=&quot;font-size: 10px;&quot;&gt;Parameters = None&lt;/font&gt;&lt;/div&gt;&lt;div style=&quot;font-size: 10px;&quot; align=&quot;left&quot;&gt;&lt;font style=&quot;font-size: 10px;&quot;&gt;Flops = None&lt;/font&gt;&lt;/div&gt;" style="text;html=1;align=left;verticalAlign=middle;whiteSpace=wrap;rounded=0;" vertex="1" parent="1">
          <mxGeometry x="420" y="480" width="130" height="40" as="geometry" />
        </mxCell>
        <mxCell id="kc2935-0-R1MWNThHEvL-177" value="" style="rounded=1;whiteSpace=wrap;html=1;fillColor=#fff2cc;strokeColor=#d6b656;" vertex="1" parent="1">
          <mxGeometry x="695" y="540" width="170" height="245" as="geometry" />
        </mxCell>
        <mxCell id="kc2935-0-R1MWNThHEvL-178" value="" style="group" vertex="1" connectable="0" parent="1">
          <mxGeometry x="705" y="575" width="150" height="20" as="geometry" />
        </mxCell>
        <mxCell id="kc2935-0-R1MWNThHEvL-179" value="1" style="rounded=0;whiteSpace=wrap;html=1;" vertex="1" parent="kc2935-0-R1MWNThHEvL-178">
          <mxGeometry width="25" height="20" as="geometry" />
        </mxCell>
        <mxCell id="kc2935-0-R1MWNThHEvL-180" value="0" style="rounded=0;whiteSpace=wrap;html=1;" vertex="1" parent="kc2935-0-R1MWNThHEvL-178">
          <mxGeometry x="25" width="25" height="20" as="geometry" />
        </mxCell>
        <mxCell id="kc2935-0-R1MWNThHEvL-181" value="0" style="rounded=0;whiteSpace=wrap;html=1;" vertex="1" parent="kc2935-0-R1MWNThHEvL-178">
          <mxGeometry x="50" width="25" height="20" as="geometry" />
        </mxCell>
        <mxCell id="kc2935-0-R1MWNThHEvL-182" value="1" style="rounded=0;whiteSpace=wrap;html=1;" vertex="1" parent="kc2935-0-R1MWNThHEvL-178">
          <mxGeometry x="75" width="25" height="20" as="geometry" />
        </mxCell>
        <mxCell id="kc2935-0-R1MWNThHEvL-183" value="0" style="rounded=0;whiteSpace=wrap;html=1;" vertex="1" parent="kc2935-0-R1MWNThHEvL-178">
          <mxGeometry x="100" width="25" height="20" as="geometry" />
        </mxCell>
        <mxCell id="kc2935-0-R1MWNThHEvL-184" value="1" style="rounded=0;whiteSpace=wrap;html=1;" vertex="1" parent="kc2935-0-R1MWNThHEvL-178">
          <mxGeometry x="125" width="25" height="20" as="geometry" />
        </mxCell>
        <mxCell id="kc2935-0-R1MWNThHEvL-185" value="" style="group" vertex="1" connectable="0" parent="1">
          <mxGeometry x="705" y="645" width="150" height="20" as="geometry" />
        </mxCell>
        <mxCell id="kc2935-0-R1MWNThHEvL-186" value="1" style="rounded=0;whiteSpace=wrap;html=1;" vertex="1" parent="kc2935-0-R1MWNThHEvL-185">
          <mxGeometry width="25" height="20" as="geometry" />
        </mxCell>
        <mxCell id="kc2935-0-R1MWNThHEvL-187" value="0" style="rounded=0;whiteSpace=wrap;html=1;" vertex="1" parent="kc2935-0-R1MWNThHEvL-185">
          <mxGeometry x="25" width="25" height="20" as="geometry" />
        </mxCell>
        <mxCell id="kc2935-0-R1MWNThHEvL-188" value="1" style="rounded=0;whiteSpace=wrap;html=1;" vertex="1" parent="kc2935-0-R1MWNThHEvL-185">
          <mxGeometry x="50" width="25" height="20" as="geometry" />
        </mxCell>
        <mxCell id="kc2935-0-R1MWNThHEvL-189" value="1" style="rounded=0;whiteSpace=wrap;html=1;" vertex="1" parent="kc2935-0-R1MWNThHEvL-185">
          <mxGeometry x="75" width="25" height="20" as="geometry" />
        </mxCell>
        <mxCell id="kc2935-0-R1MWNThHEvL-190" value="1" style="rounded=0;whiteSpace=wrap;html=1;" vertex="1" parent="kc2935-0-R1MWNThHEvL-185">
          <mxGeometry x="100" width="25" height="20" as="geometry" />
        </mxCell>
        <mxCell id="kc2935-0-R1MWNThHEvL-191" value="1" style="rounded=0;whiteSpace=wrap;html=1;" vertex="1" parent="kc2935-0-R1MWNThHEvL-185">
          <mxGeometry x="125" width="25" height="20" as="geometry" />
        </mxCell>
        <mxCell id="kc2935-0-R1MWNThHEvL-192" value="" style="group" vertex="1" connectable="0" parent="1">
          <mxGeometry x="705" y="725" width="150" height="20" as="geometry" />
        </mxCell>
        <mxCell id="kc2935-0-R1MWNThHEvL-193" value="1" style="rounded=0;whiteSpace=wrap;html=1;" vertex="1" parent="kc2935-0-R1MWNThHEvL-192">
          <mxGeometry width="25" height="20" as="geometry" />
        </mxCell>
        <mxCell id="kc2935-0-R1MWNThHEvL-194" value="0" style="rounded=0;whiteSpace=wrap;html=1;" vertex="1" parent="kc2935-0-R1MWNThHEvL-192">
          <mxGeometry x="25" width="25" height="20" as="geometry" />
        </mxCell>
        <mxCell id="kc2935-0-R1MWNThHEvL-195" value="1" style="rounded=0;whiteSpace=wrap;html=1;" vertex="1" parent="kc2935-0-R1MWNThHEvL-192">
          <mxGeometry x="50" width="25" height="20" as="geometry" />
        </mxCell>
        <mxCell id="kc2935-0-R1MWNThHEvL-196" value="1" style="rounded=0;whiteSpace=wrap;html=1;" vertex="1" parent="kc2935-0-R1MWNThHEvL-192">
          <mxGeometry x="75" width="25" height="20" as="geometry" />
        </mxCell>
        <mxCell id="kc2935-0-R1MWNThHEvL-197" value="0" style="rounded=0;whiteSpace=wrap;html=1;" vertex="1" parent="kc2935-0-R1MWNThHEvL-192">
          <mxGeometry x="100" width="25" height="20" as="geometry" />
        </mxCell>
        <mxCell id="kc2935-0-R1MWNThHEvL-198" value="1" style="rounded=0;whiteSpace=wrap;html=1;" vertex="1" parent="kc2935-0-R1MWNThHEvL-192">
          <mxGeometry x="125" width="25" height="20" as="geometry" />
        </mxCell>
        <mxCell id="kc2935-0-R1MWNThHEvL-199" value="Encoded Networks(Genomes)" style="text;html=1;align=center;verticalAlign=middle;whiteSpace=wrap;rounded=0;" vertex="1" parent="1">
          <mxGeometry x="715" y="510" width="130" height="30" as="geometry" />
        </mxCell>
        <mxCell id="kc2935-0-R1MWNThHEvL-200" value="&lt;div style=&quot;font-size: 10px;&quot; align=&quot;left&quot;&gt;&lt;font style=&quot;font-size: 10px;&quot;&gt;Accuracy = 70%&lt;br&gt;&lt;/font&gt;&lt;/div&gt;&lt;div style=&quot;font-size: 10px;&quot; align=&quot;left&quot;&gt;&lt;font style=&quot;font-size: 10px;&quot;&gt;Parameters = 10M&lt;/font&gt;&lt;/div&gt;&lt;div style=&quot;font-size: 10px;&quot; align=&quot;left&quot;&gt;&lt;font style=&quot;font-size: 10px;&quot;&gt;Flops = 500K&lt;/font&gt;&lt;/div&gt;" style="text;html=1;align=left;verticalAlign=middle;whiteSpace=wrap;rounded=0;" vertex="1" parent="1">
          <mxGeometry x="705" y="595" width="130" height="40" as="geometry" />
        </mxCell>
        <mxCell id="kc2935-0-R1MWNThHEvL-201" value="&lt;div style=&quot;font-size: 10px;&quot; align=&quot;left&quot;&gt;&lt;font style=&quot;font-size: 10px;&quot;&gt;Accuracy = 70%&lt;br&gt;&lt;/font&gt;&lt;/div&gt;&lt;div style=&quot;font-size: 10px;&quot; align=&quot;left&quot;&gt;&lt;font style=&quot;font-size: 10px;&quot;&gt;Parameters = 7M&lt;/font&gt;&lt;/div&gt;&lt;div style=&quot;font-size: 10px;&quot; align=&quot;left&quot;&gt;&lt;font style=&quot;font-size: 10px;&quot;&gt;Flops = 300K&lt;/font&gt;&lt;/div&gt;" style="text;html=1;align=left;verticalAlign=middle;whiteSpace=wrap;rounded=0;" vertex="1" parent="1">
          <mxGeometry x="705" y="666.5" width="130" height="40" as="geometry" />
        </mxCell>
        <mxCell id="kc2935-0-R1MWNThHEvL-202" value="&lt;div style=&quot;font-size: 10px;&quot; align=&quot;left&quot;&gt;&lt;font style=&quot;font-size: 10px;&quot;&gt;Accuracy = 77%&lt;br&gt;&lt;/font&gt;&lt;/div&gt;&lt;div style=&quot;font-size: 10px;&quot; align=&quot;left&quot;&gt;&lt;font style=&quot;font-size: 10px;&quot;&gt;Parameters = 9M&lt;/font&gt;&lt;/div&gt;&lt;div style=&quot;font-size: 10px;&quot; align=&quot;left&quot;&gt;&lt;font style=&quot;font-size: 10px;&quot;&gt;Flops = 350K&lt;br&gt;&lt;/font&gt;&lt;/div&gt;" style="text;html=1;align=left;verticalAlign=middle;whiteSpace=wrap;rounded=0;" vertex="1" parent="1">
          <mxGeometry x="705" y="745" width="130" height="40" as="geometry" />
        </mxCell>
        <mxCell id="kc2935-0-R1MWNThHEvL-204" value="GenoMaster Worksheet" style="text;html=1;align=center;verticalAlign=middle;whiteSpace=wrap;rounded=0;" vertex="1" parent="1">
          <mxGeometry x="705" y="780" width="145" height="30" as="geometry" />
        </mxCell>
        <mxCell id="kc2935-0-R1MWNThHEvL-205" value="Validator 1" style="rounded=1;whiteSpace=wrap;html=1;fillColor=#dae8fc;strokeColor=#6c8ebf;" vertex="1" parent="1">
          <mxGeometry x="550" y="553" width="80" height="60" as="geometry" />
        </mxCell>
        <mxCell id="kc2935-0-R1MWNThHEvL-206" value="Validator 2" style="rounded=1;whiteSpace=wrap;html=1;fillColor=#dae8fc;strokeColor=#6c8ebf;" vertex="1" parent="1">
          <mxGeometry x="550" y="627" width="80" height="60" as="geometry" />
        </mxCell>
        <mxCell id="kc2935-0-R1MWNThHEvL-207" value="Validator 3" style="rounded=1;whiteSpace=wrap;html=1;fillColor=#dae8fc;strokeColor=#6c8ebf;" vertex="1" parent="1">
          <mxGeometry x="550" y="705" width="80" height="60" as="geometry" />
        </mxCell>
        <mxCell id="kc2935-0-R1MWNThHEvL-208" value="" style="endArrow=classic;html=1;rounded=0;exitX=0;exitY=0.171;exitDx=0;exitDy=0;exitPerimeter=0;entryX=1;entryY=0.5;entryDx=0;entryDy=0;" edge="1" parent="1" source="kc2935-0-R1MWNThHEvL-177" target="kc2935-0-R1MWNThHEvL-205">
          <mxGeometry width="50" height="50" relative="1" as="geometry">
            <mxPoint x="660" y="480" as="sourcePoint" />
            <mxPoint x="720" y="480.5" as="targetPoint" />
          </mxGeometry>
        </mxCell>
        <mxCell id="kc2935-0-R1MWNThHEvL-209" value="" style="endArrow=classic;html=1;rounded=0;exitX=0;exitY=0.171;exitDx=0;exitDy=0;exitPerimeter=0;entryX=1;entryY=0.5;entryDx=0;entryDy=0;" edge="1" parent="1">
          <mxGeometry width="50" height="50" relative="1" as="geometry">
            <mxPoint x="695" y="656.5" as="sourcePoint" />
            <mxPoint x="630" y="657.5" as="targetPoint" />
          </mxGeometry>
        </mxCell>
        <mxCell id="kc2935-0-R1MWNThHEvL-210" value="" style="endArrow=classic;html=1;rounded=0;exitX=-0.004;exitY=0.798;exitDx=0;exitDy=0;exitPerimeter=0;entryX=1;entryY=0.5;entryDx=0;entryDy=0;" edge="1" parent="1" source="kc2935-0-R1MWNThHEvL-177" target="kc2935-0-R1MWNThHEvL-207">
          <mxGeometry width="50" height="50" relative="1" as="geometry">
            <mxPoint x="695" y="770" as="sourcePoint" />
            <mxPoint x="630" y="771" as="targetPoint" />
          </mxGeometry>
        </mxCell>
        <mxCell id="kc2935-0-R1MWNThHEvL-211" value="&lt;b&gt;&lt;font color=&quot;#ffffff&quot;&gt;Bitensor Network&lt;/font&gt;&lt;/b&gt;" style="rounded=1;whiteSpace=wrap;html=1;fillColor=#000033;" vertex="1" parent="1">
          <mxGeometry x="410" y="815" width="180" height="80" as="geometry" />
        </mxCell>
        <mxCell id="kc2935-0-R1MWNThHEvL-212" value="" style="endArrow=classic;html=1;rounded=0;exitX=0;exitY=0.5;exitDx=0;exitDy=0;entryX=0.389;entryY=-0.015;entryDx=0;entryDy=0;entryPerimeter=0;" edge="1" parent="1" source="kc2935-0-R1MWNThHEvL-205" target="kc2935-0-R1MWNThHEvL-211">
          <mxGeometry width="50" height="50" relative="1" as="geometry">
            <mxPoint x="300" y="561" as="sourcePoint" />
            <mxPoint x="300" y="882.5" as="targetPoint" />
            <Array as="points">
              <mxPoint x="480" y="583" />
              <mxPoint x="480" y="720" />
            </Array>
          </mxGeometry>
        </mxCell>
        <mxCell id="kc2935-0-R1MWNThHEvL-213" value="" style="endArrow=classic;html=1;rounded=0;exitX=0;exitY=0.5;exitDx=0;exitDy=0;entryX=0.446;entryY=-0.015;entryDx=0;entryDy=0;entryPerimeter=0;" edge="1" parent="1" target="kc2935-0-R1MWNThHEvL-211">
          <mxGeometry width="50" height="50" relative="1" as="geometry">
            <mxPoint x="550" y="660" as="sourcePoint" />
            <mxPoint x="520" y="790" as="targetPoint" />
            <Array as="points">
              <mxPoint x="490" y="660" />
              <mxPoint x="490" y="730" />
              <mxPoint x="490" y="770" />
            </Array>
          </mxGeometry>
        </mxCell>
        <mxCell id="kc2935-0-R1MWNThHEvL-215" value="" style="endArrow=classic;html=1;rounded=0;entryX=0.5;entryY=0;entryDx=0;entryDy=0;exitX=-0.048;exitY=0.468;exitDx=0;exitDy=0;exitPerimeter=0;" edge="1" parent="1" source="kc2935-0-R1MWNThHEvL-207" target="kc2935-0-R1MWNThHEvL-211">
          <mxGeometry width="50" height="50" relative="1" as="geometry">
            <mxPoint x="470" y="700" as="sourcePoint" />
            <mxPoint x="520" y="650" as="targetPoint" />
            <Array as="points">
              <mxPoint x="500" y="733" />
            </Array>
          </mxGeometry>
        </mxCell>
        <mxCell id="kc2935-0-R1MWNThHEvL-216" value="" style="endArrow=classic;html=1;rounded=0;exitX=-0.001;exitY=0.477;exitDx=0;exitDy=0;exitPerimeter=0;entryX=1.007;entryY=0.553;entryDx=0;entryDy=0;entryPerimeter=0;" edge="1" parent="1" source="kc2935-0-R1MWNThHEvL-177" target="kc2935-0-R1MWNThHEvL-205">
          <mxGeometry width="50" height="50" relative="1" as="geometry">
            <mxPoint x="705" y="592" as="sourcePoint" />
            <mxPoint x="640" y="590" as="targetPoint" />
          </mxGeometry>
        </mxCell>
        <mxCell id="kc2935-0-R1MWNThHEvL-217" value="" style="endArrow=classic;html=1;rounded=0;exitX=-0.008;exitY=0.795;exitDx=0;exitDy=0;exitPerimeter=0;entryX=1.007;entryY=0.553;entryDx=0;entryDy=0;entryPerimeter=0;" edge="1" parent="1" source="kc2935-0-R1MWNThHEvL-177">
          <mxGeometry width="50" height="50" relative="1" as="geometry">
            <mxPoint x="694" y="666" as="sourcePoint" />
            <mxPoint x="630" y="595" as="targetPoint" />
          </mxGeometry>
        </mxCell>
        <mxCell id="kc2935-0-R1MWNThHEvL-218" value="" style="endArrow=classic;html=1;rounded=0;entryX=1.008;entryY=0.564;entryDx=0;entryDy=0;entryPerimeter=0;exitX=0;exitY=0.793;exitDx=0;exitDy=0;exitPerimeter=0;" edge="1" parent="1" source="kc2935-0-R1MWNThHEvL-177" target="kc2935-0-R1MWNThHEvL-206">
          <mxGeometry width="50" height="50" relative="1" as="geometry">
            <mxPoint x="690" y="730" as="sourcePoint" />
            <mxPoint x="640" y="745" as="targetPoint" />
          </mxGeometry>
        </mxCell>
        <mxCell id="kc2935-0-R1MWNThHEvL-219" value="" style="endArrow=classic;html=1;rounded=0;exitX=-0.002;exitY=0.474;exitDx=0;exitDy=0;exitPerimeter=0;entryX=1.006;entryY=0.479;entryDx=0;entryDy=0;entryPerimeter=0;" edge="1" parent="1" source="kc2935-0-R1MWNThHEvL-177" target="kc2935-0-R1MWNThHEvL-207">
          <mxGeometry width="50" height="50" relative="1" as="geometry">
            <mxPoint x="705" y="666.5" as="sourcePoint" />
            <mxPoint x="640" y="667.5" as="targetPoint" />
          </mxGeometry>
        </mxCell>
        <mxCell id="kc2935-0-R1MWNThHEvL-220" value="" style="endArrow=classic;html=1;rounded=0;entryX=1.01;entryY=0.441;entryDx=0;entryDy=0;entryPerimeter=0;exitX=-0.002;exitY=0.175;exitDx=0;exitDy=0;exitPerimeter=0;" edge="1" parent="1" source="kc2935-0-R1MWNThHEvL-177">
          <mxGeometry width="50" height="50" relative="1" as="geometry">
            <mxPoint x="690" y="580" as="sourcePoint" />
            <mxPoint x="630" y="653.46" as="targetPoint" />
          </mxGeometry>
        </mxCell>
        <mxCell id="kc2935-0-R1MWNThHEvL-221" value="" style="endArrow=classic;html=1;rounded=0;entryX=1.005;entryY=0.278;entryDx=0;entryDy=0;entryPerimeter=0;exitX=-0.001;exitY=0.181;exitDx=0;exitDy=0;exitPerimeter=0;" edge="1" parent="1" source="kc2935-0-R1MWNThHEvL-177" target="kc2935-0-R1MWNThHEvL-207">
          <mxGeometry width="50" height="50" relative="1" as="geometry">
            <mxPoint x="690" y="590" as="sourcePoint" />
            <mxPoint x="640" y="663.46" as="targetPoint" />
          </mxGeometry>
        </mxCell>
        <mxCell id="kc2935-0-R1MWNThHEvL-222" value="" style="endArrow=classic;html=1;rounded=0;exitX=1;exitY=0.5;exitDx=0;exitDy=0;entryX=1.009;entryY=0.187;entryDx=0;entryDy=0;entryPerimeter=0;fillColor=#60a917;strokeColor=#2D7600;strokeWidth=2;" edge="1" parent="1" source="kc2935-0-R1MWNThHEvL-211" target="kc2935-0-R1MWNThHEvL-9">
          <mxGeometry width="50" height="50" relative="1" as="geometry">
            <mxPoint x="560" y="670" as="sourcePoint" />
            <mxPoint x="630" y="270" as="targetPoint" />
            <Array as="points">
              <mxPoint x="960" y="855" />
              <mxPoint x="960" y="660" />
              <mxPoint x="960" y="270" />
              <mxPoint x="680" y="270" />
              <mxPoint x="680" y="300" />
            </Array>
          </mxGeometry>
        </mxCell>
        <mxCell id="kc2935-0-R1MWNThHEvL-223" value="" style="endArrow=classic;html=1;rounded=0;entryX=1.027;entryY=0.083;entryDx=0;entryDy=0;entryPerimeter=0;strokeWidth=2;fillColor=#60a917;strokeColor=#2D7600;" edge="1" parent="1" target="kc2935-0-R1MWNThHEvL-99">
          <mxGeometry width="50" height="50" relative="1" as="geometry">
            <mxPoint x="680" y="270" as="sourcePoint" />
            <mxPoint x="610" y="310" as="targetPoint" />
            <Array as="points">
              <mxPoint x="680" y="370" />
            </Array>
          </mxGeometry>
        </mxCell>
        <mxCell id="kc2935-0-R1MWNThHEvL-224" value="" style="endArrow=classic;html=1;rounded=0;entryX=1;entryY=0.25;entryDx=0;entryDy=0;strokeWidth=2;fillColor=#60a917;strokeColor=#2D7600;" edge="1" parent="1" target="kc2935-0-R1MWNThHEvL-100">
          <mxGeometry width="50" height="50" relative="1" as="geometry">
            <mxPoint x="680" y="270" as="sourcePoint" />
            <mxPoint x="660" y="455" as="targetPoint" />
            <Array as="points">
              <mxPoint x="680" y="455" />
            </Array>
          </mxGeometry>
        </mxCell>
        <mxCell id="kc2935-0-R1MWNThHEvL-225" value="Rank Genomes" style="rounded=1;whiteSpace=wrap;html=1;fillColor=#fff2cc;strokeColor=#d6b656;" vertex="1" parent="1">
          <mxGeometry x="179" y="575" width="170" height="50" as="geometry" />
        </mxCell>
        <mxCell id="kc2935-0-R1MWNThHEvL-227" value="" style="endArrow=classic;html=1;rounded=0;entryX=1;entryY=0.5;entryDx=0;entryDy=0;exitX=0;exitY=1;exitDx=0;exitDy=0;" edge="1" parent="1" source="kc2935-0-R1MWNThHEvL-202" target="kc2935-0-R1MWNThHEvL-225">
          <mxGeometry width="50" height="50" relative="1" as="geometry">
            <mxPoint x="690" y="780" as="sourcePoint" />
            <mxPoint x="350" y="550" as="targetPoint" />
            <Array as="points">
              <mxPoint x="400" y="785" />
              <mxPoint x="400" y="600" />
            </Array>
          </mxGeometry>
        </mxCell>
        <mxCell id="kc2935-0-R1MWNThHEvL-229" value="" style="endArrow=classic;html=1;rounded=0;exitX=0;exitY=0.5;exitDx=0;exitDy=0;entryX=0.5;entryY=1;entryDx=0;entryDy=0;" edge="1" parent="1" source="kc2935-0-R1MWNThHEvL-211" target="kc2935-0-R1MWNThHEvL-1">
          <mxGeometry width="50" height="50" relative="1" as="geometry">
            <mxPoint x="250" y="590" as="sourcePoint" />
            <mxPoint x="70" y="570" as="targetPoint" />
            <Array as="points">
              <mxPoint x="75" y="855" />
            </Array>
          </mxGeometry>
        </mxCell>
        <mxCell id="kc2935-0-R1MWNThHEvL-230" value="Sync MetaGraph" style="text;html=1;align=center;verticalAlign=middle;whiteSpace=wrap;rounded=0;" vertex="1" parent="1">
          <mxGeometry x="170" y="830" width="130" height="30" as="geometry" />
        </mxCell>
        <mxCell id="kc2935-0-R1MWNThHEvL-231" value="Get Miner List" style="text;html=1;align=center;verticalAlign=middle;whiteSpace=wrap;rounded=0;" vertex="1" parent="1">
          <mxGeometry x="170" y="850" width="130" height="30" as="geometry" />
        </mxCell>
        <mxCell id="kc2935-0-R1MWNThHEvL-233" value="Trained Genomes" style="text;html=1;align=center;verticalAlign=middle;whiteSpace=wrap;rounded=0;rotation=-90;" vertex="1" parent="1">
          <mxGeometry x="325.5" y="665" width="130" height="30" as="geometry" />
        </mxCell>
        <mxCell id="kc2935-0-R1MWNThHEvL-234" value="" style="endArrow=classic;html=1;rounded=0;entryX=0.549;entryY=0.995;entryDx=0;entryDy=0;strokeWidth=2;fillColor=#6a00ff;strokeColor=#3700CC;entryPerimeter=0;" edge="1" parent="1" target="kc2935-0-R1MWNThHEvL-100">
          <mxGeometry width="50" height="50" relative="1" as="geometry">
            <mxPoint x="130" y="430" as="sourcePoint" />
            <mxPoint x="597.5" y="576.5" as="targetPoint" />
            <Array as="points">
              <mxPoint x="130" y="490" />
              <mxPoint x="130" y="540" />
              <mxPoint x="360" y="540" />
              <mxPoint x="630" y="540" />
            </Array>
          </mxGeometry>
        </mxCell>
        <mxCell id="kc2935-0-R1MWNThHEvL-235" value="Emissions" style="text;html=1;align=center;verticalAlign=middle;whiteSpace=wrap;rounded=0;" vertex="1" parent="1">
          <mxGeometry x="730" y="245" width="170" height="30" as="geometry" />
        </mxCell>
        <mxCell id="kc2935-0-R1MWNThHEvL-236" value="&lt;font style=&quot;font-size: 9px;&quot;&gt;Train Hyper prams (Epochs, random seed, batch size)&lt;/font&gt;" style="text;html=1;align=center;verticalAlign=middle;whiteSpace=wrap;rounded=0;" vertex="1" parent="1">
          <mxGeometry x="230" y="517" width="279" height="30" as="geometry" />
        </mxCell>
        <mxCell id="kc2935-0-R1MWNThHEvL-240" value="&lt;font style=&quot;font-size: 10px;&quot;&gt;Results&lt;/font&gt;" style="text;html=1;align=center;verticalAlign=middle;whiteSpace=wrap;rounded=0;rotation=90;" vertex="1" parent="1">
          <mxGeometry x="865" y="460" width="130" height="30" as="geometry" />
        </mxCell>
        <mxCell id="kc2935-0-R1MWNThHEvL-241" value="Mutate" style="rounded=1;whiteSpace=wrap;html=1;fillColor=#fff2cc;strokeColor=#d6b656;" vertex="1" parent="1">
          <mxGeometry x="179" y="645" width="170" height="50" as="geometry" />
        </mxCell>
        <mxCell id="kc2935-0-R1MWNThHEvL-242" value="Cross over" style="rounded=1;whiteSpace=wrap;html=1;fillColor=#fff2cc;strokeColor=#d6b656;" vertex="1" parent="1">
          <mxGeometry x="179" y="715" width="170" height="50" as="geometry" />
        </mxCell>
        <mxCell id="kc2935-0-R1MWNThHEvL-243" value="New Generation" style="rounded=1;whiteSpace=wrap;html=1;fillColor=#fff2cc;strokeColor=#d6b656;" vertex="1" parent="1">
          <mxGeometry x="179" y="780" width="170" height="50" as="geometry" />
        </mxCell>
        <mxCell id="kc2935-0-R1MWNThHEvL-244" value="" style="endArrow=classic;html=1;rounded=0;exitX=0.5;exitY=1;exitDx=0;exitDy=0;entryX=0.5;entryY=0;entryDx=0;entryDy=0;" edge="1" parent="1" source="kc2935-0-R1MWNThHEvL-225" target="kc2935-0-R1MWNThHEvL-241">
          <mxGeometry width="50" height="50" relative="1" as="geometry">
            <mxPoint x="350" y="650" as="sourcePoint" />
            <mxPoint x="400" y="600" as="targetPoint" />
          </mxGeometry>
        </mxCell>
        <mxCell id="kc2935-0-R1MWNThHEvL-245" value="" style="endArrow=classic;html=1;rounded=0;exitX=0.5;exitY=1;exitDx=0;exitDy=0;" edge="1" parent="1" source="kc2935-0-R1MWNThHEvL-241" target="kc2935-0-R1MWNThHEvL-242">
          <mxGeometry width="50" height="50" relative="1" as="geometry">
            <mxPoint x="350" y="650" as="sourcePoint" />
            <mxPoint x="400" y="600" as="targetPoint" />
          </mxGeometry>
        </mxCell>
        <mxCell id="kc2935-0-R1MWNThHEvL-246" value="" style="endArrow=classic;html=1;rounded=0;exitX=0.5;exitY=1;exitDx=0;exitDy=0;entryX=0.5;entryY=0;entryDx=0;entryDy=0;" edge="1" parent="1" source="kc2935-0-R1MWNThHEvL-242" target="kc2935-0-R1MWNThHEvL-243">
          <mxGeometry width="50" height="50" relative="1" as="geometry">
            <mxPoint x="350" y="650" as="sourcePoint" />
            <mxPoint x="400" y="600" as="targetPoint" />
          </mxGeometry>
        </mxCell>
        <mxCell id="kc2935-0-R1MWNThHEvL-247" value="" style="endArrow=classic;html=1;rounded=0;exitX=0;exitY=0.5;exitDx=0;exitDy=0;entryX=0.75;entryY=1;entryDx=0;entryDy=0;" edge="1" parent="1" source="kc2935-0-R1MWNThHEvL-243" target="kc2935-0-R1MWNThHEvL-1">
          <mxGeometry width="50" height="50" relative="1" as="geometry">
            <mxPoint x="350" y="620" as="sourcePoint" />
            <mxPoint x="400" y="570" as="targetPoint" />
            <Array as="points">
              <mxPoint x="110" y="805" />
            </Array>
          </mxGeometry>
        </mxCell>
        <mxCell id="kc2935-0-R1MWNThHEvL-248" value="&lt;b&gt;Initialize GenoMaster Server&lt;br&gt;&lt;/b&gt;" style="rounded=1;whiteSpace=wrap;html=1;fillColor=#fff2cc;strokeColor=#d6b656;" vertex="1" parent="1">
          <mxGeometry x="10" y="260" width="130" height="60" as="geometry" />
        </mxCell>
        <mxCell id="kc2935-0-R1MWNThHEvL-249" value="" style="endArrow=classic;html=1;rounded=0;entryX=0.5;entryY=0;entryDx=0;entryDy=0;exitX=0.5;exitY=1;exitDx=0;exitDy=0;" edge="1" parent="1" source="kc2935-0-R1MWNThHEvL-248" target="kc2935-0-R1MWNThHEvL-1">
          <mxGeometry width="50" height="50" relative="1" as="geometry">
            <mxPoint x="350" y="500" as="sourcePoint" />
            <mxPoint x="400" y="450" as="targetPoint" />
          </mxGeometry>
        </mxCell>
        <mxCell id="kc2935-0-R1MWNThHEvL-250" value="&lt;font size=&quot;1&quot;&gt;&lt;b&gt;Genome 1&lt;/b&gt;&lt;/font&gt;" style="text;html=1;align=center;verticalAlign=middle;whiteSpace=wrap;rounded=0;" vertex="1" parent="1">
          <mxGeometry x="460" y="320" width="170" height="30" as="geometry" />
        </mxCell>
        <mxCell id="kc2935-0-R1MWNThHEvL-251" value="&lt;font size=&quot;1&quot;&gt;&lt;b&gt;Genome 2&lt;br&gt;&lt;/b&gt;&lt;/font&gt;" style="text;html=1;align=center;verticalAlign=middle;whiteSpace=wrap;rounded=0;" vertex="1" parent="1">
          <mxGeometry x="460" y="390" width="170" height="30" as="geometry" />
        </mxCell>
        <mxCell id="kc2935-0-R1MWNThHEvL-252" value="&lt;font size=&quot;1&quot;&gt;&lt;b&gt;Genome 3&lt;br&gt;&lt;/b&gt;&lt;/font&gt;" style="text;html=1;align=center;verticalAlign=middle;whiteSpace=wrap;rounded=0;" vertex="1" parent="1">
          <mxGeometry x="460" y="470" width="170" height="30" as="geometry" />
        </mxCell>
        <mxCell id="kc2935-0-R1MWNThHEvL-253" value="" style="shape=image;html=1;verticalAlign=top;verticalLabelPosition=bottom;labelBackgroundColor=#ffffff;imageAspect=0;aspect=fixed;image=https://cdn4.iconfinder.com/data/icons/evil-icons-user-interface/64/download-128.png" vertex="1" parent="1">
          <mxGeometry x="452.5" y="200.5" width="85" height="85" as="geometry" />
        </mxCell>
        <mxCell id="kc2935-0-R1MWNThHEvL-256" value="&lt;b&gt;GenoMaster Worksheet&lt;/b&gt;" style="text;html=1;align=center;verticalAlign=middle;whiteSpace=wrap;rounded=0;" vertex="1" parent="1">
          <mxGeometry x="422.5" y="270" width="145" height="30" as="geometry" />
        </mxCell>
        <mxCell id="kc2935-0-R1MWNThHEvL-258" value="Emissions" style="text;html=1;align=center;verticalAlign=middle;whiteSpace=wrap;rounded=0;" vertex="1" parent="1">
          <mxGeometry x="705" y="840" width="130" height="30" as="geometry" />
        </mxCell>
        <mxCell id="kc2935-0-R1MWNThHEvL-260" value="&lt;div&gt;&lt;font style=&quot;font-size: 15px;&quot;&gt;&lt;b&gt;Job Watchdog&lt;/b&gt;&lt;/font&gt;&lt;/div&gt;" style="ellipse;shape=cloud;whiteSpace=wrap;html=1;fillColor=#d5e8d4;strokeColor=#82b366;" vertex="1" parent="1">
          <mxGeometry x="405" y="120" width="180" height="93" as="geometry" />
        </mxCell>
      </root>
    </mxGraphModel>
  </diagram>
</mxfile>
